<?xml version="1.0" ?>
<!-- Uploaded to: SVG Repo, www.svgrepo.com, Generator: SVG Repo Mixer Tools -->
<svg width="800px" height="800px" viewBox="0 0 960 960" version="1.1" xml:space="preserve" xmlns="http://www.w3.org/2000/svg" xmlns:xlink="http://www.w3.org/1999/xlink">
<style type="text/css">
	.st0{display:none;}
	.st1{display:inline;opacity:0.93;}
	.st2{display:inline;fill:none;stroke:#000000;stroke-width:15;stroke-linecap:round;stroke-linejoin:round;stroke-miterlimit:10;}
	.st3{display:inline;}
	.st4{fill:none;stroke:#000000;stroke-width:15;stroke-linecap:round;stroke-linejoin:round;stroke-miterlimit:10;}
	.st5{display:inline;fill:none;stroke:#1A1D3F;stroke-width:15;stroke-linecap:round;stroke-linejoin:round;stroke-miterlimit:10;}
	.st6{fill:#DDEDE7;}
	.st7{fill:#1A1D3F;}
	.st8{fill:#E9B44D;}
	.st9{fill:#ED644E;}
	.st10{fill:#494EDF;}
	.st11{fill:#3DC5A1;}
	.st12{fill:#F6CEC1;}
	.st13{fill:none;}
	.st14{fill:none;stroke:#1A1D3F;stroke-width:15;stroke-linecap:round;stroke-linejoin:round;stroke-miterlimit:10;}
	.st15{display:inline;fill:#E9B44D;}
	.st16{fill:#222222;}
	.st17{display:inline;fill:#222222;}
</style>
<g class="st0" id="guide"/>
<g class="st0" id="sketch"/>
<g class="st0" id="stroke">
<g class="st3">
<g>
<path class="st4" d="M234,413.2c-21.9,6.8-47.9,21.2-45.3,44c2.6,23.3,32.2,31.2,55.3,35.3c114.1,20.3,347,13.9,450.5,4.3     c13.8-1.3,27.8-5.2,40.6-10.6c12.7-5.4,24-16,26.8-29.5c3.5-17.4-8.1-35-23.4-44.1C723,403.4,616.1,382,470.1,382     S272.8,403.5,234,413.2z"/>
<path class="st4" d="M761.7,456.6c-1.2,22.6-1.6,41.6-2.7,64.2C737,570.7,427.4,558,368.1,557.2c-31.7-0.4-162.3-11.1-176.8-40.3     c-1-23.8-2.1-38.3-2.7-59.7"/>
<path class="st4" d="M763.7,737.3c0.6,21.7-2.6,50.6-4.8,73.7c-21.9,49.9-223.4,59.3-282.8,58.5c-31.7-0.4-245-0.9-284.9-47.4     c-1-23.8-2.4-51.3-2.9-72.7"/>
<path class="st4" d="M217.1,534.2c0.8,70.2,1.6,140.5,2.4,210.7c71.6,61.2,436.7,55.9,512.5-6.5c0.4-63.1,0.8-134.5,1.2-199.8"/>
<path class="st4" d="M284.2,427.2c134.8-23.9,272.7-24.3,407.6-1.1c7.7,1.3,16.9,3.4,23.2,8c24.5,17.6-9.6,33.1-47.7,36     c-74.1,5.6-125,4.8-199.3,5.2c-37.6,0.2-75.2,0-112.8-0.7c-19.2-0.3-40.7-2.4-62.2-5.5c-16.5-2.4-51.1-5.9-53.2-18.9     C237.7,437.4,268.6,429.9,284.2,427.2z"/>
<path class="st4" d="M732.2,712.5c27.8,1.1,34.8,16.5,30.3,33.3c-4.2,15.6-35,31-67.8,42.6C544,841.8,293.5,813.1,217,779.3     c-13.1-5.8-32.1-20.9-28.2-34.7c3.1-10.9,16.5-22.1,30.4-21.2"/>
<path class="st4" d="M216.4,534.2c52.9,84.3,93.8,159,146.8,243.3c45.4-64.9,85.3-147.5,123.3-218.2     c48,73.3,98.7,135.7,146.7,209c37.8-72.8,75-160.7,100.1-229.6"/>
</g>
<path class="st4" d="M613.6,295.8C516.8,261.1,314,186,217.2,151.3c-8.4-3-17.1-6.2-23.1-12.8c-5.9-6.6-7.9-17.7-1.8-24.2    c7.5-8,20.7-4.3,30.8,0c92.1,39.1,306.5,120.2,398.6,159.3c10.2-11.6,30.4-14.1,43.8-6.3s19.8,25.6,14.6,40.2    c-5.2,14.6-21.4,24.3-36.7,21.9C628.1,327.1,614.2,311.2,613.6,295.8z"/>
<path class="st4" d="M454.3,237.8c-39.6,20.1-75.6,38.5-102.6,52.5c-11.7-10.1-32.8-10.8-44.9-1.2c-12.1,9.6-16.1,28.1-9,41.8    c7.1,13.7,24.6,21.1,39.4,16.7c14.8-4.4,26.8-20.9,25.2-36.3c32.1-14.3,78.2-36.1,128.5-60.1"/>
<path class="st4" d="M489,220.1c86.3-43.8,182-92.2,238.5-121.5c7.9-4.1,16.2-8.3,25.1-8.1c8.9,0.2,18.4,6.3,19,15.2    c0.8,10.9-11,18-21,22.5c-52.1,23.2-141.2,66.1-225.1,106.3"/>
</g>
</g>
<g id="outline">
<path d="M287.4,475.8c1.6,0.2,3.1,0.4,4.5,0.6c23.6,3.4,44.8,5.2,63.1,5.6c28.7,0.5,57.7,0.8,86.6,0.8c8.8,0,17.6,0,26.4-0.1   c11.5-0.1,22.4-0.1,33-0.1c58.1-0.2,103.9-0.3,166.9-5.1c25.8-2,57.5-10.3,62.3-27.2c1.6-5.5,1-13.9-10.8-22.4   c-7.7-5.5-18.1-7.8-26.3-9.3c-136.1-23.4-274.2-23-410.2,1.1c-6.7,1.2-19.6,3.8-30.3,8.2c-14.9,6-21.7,13.9-20.2,23.3   C235,467.4,259.9,472.1,287.4,475.8z M285.5,434.6c134.3-23.8,270.6-24.2,405-1.1c6.7,1.1,15,2.9,20.1,6.6c3.9,2.8,5.4,5.1,5.1,6.1   c-1.2,4.3-17.3,13.9-49,16.3c-62.4,4.7-108,4.9-165.8,5.1c-10.6,0-21.5,0.1-33,0.1c-37.4,0.2-75.3,0-112.6-0.7   c-17.7-0.3-38.3-2.1-61.2-5.4c-1.4-0.2-3-0.4-4.6-0.6c-8.4-1.1-19.9-2.7-29.1-5.3c-12-3.4-13.1-6.7-13.1-6.7   C247.7,446.5,258.2,439.4,285.5,434.6z M765.7,719.1c-5.4-7.3-14.1-11.8-26-13.4c0.2-25.2,0.3-51.3,0.5-77.5   c0.2-28.4,0.3-56.8,0.5-84.3c16.5-6.7,22.4-13.9,25.1-20c0.4-0.8,0.6-1.7,0.6-2.6c0.6-11.4,1-22,1.4-32.2   c0.4-10.1,0.8-20.5,1.3-31.5c1.8-9.8-0.1-20.1-5.6-29.7c-4.9-8.7-12.6-16.4-21.5-21.7c-10-5.9-44.4-13.6-87.9-19.6   c-39.3-5.4-103.1-11.9-184.2-11.9c-125.8,0-182.5,15.9-220.1,26.5c-6.3,1.8-12.3,3.5-17.9,4.8c-0.1,0-0.3,0.1-0.4,0.1   c-9.7,3-23.5,8.4-34.4,17.4c-11.9,9.7-17.5,21.5-16.2,34.1c0.4,13.1,0.9,23.8,1.5,35.1c0.4,7.5,0.8,15.3,1.2,24.6   c0,1,0.3,2.1,0.8,3c3.6,7.3,11.9,13.6,25.1,19.1c0.7,59,1.3,118.1,2,177.1c-14.6,2.7-26.8,14.5-30.1,26.1c-0.7,2.5-0.9,4.9-0.7,7.4   c0.4,15.7,1.3,34.5,2.1,52.7c0.3,6.7,0.6,13.3,0.9,19.7c0.1,1.7,0.7,3.3,1.8,4.6c17.7,20.7,64.6,34.7,143.1,42.8   c60.2,6.2,120.2,6.9,142.8,7.2c1.8,0,3.3,0,4.5,0.1c2.1,0,4.4,0,6.9,0c29.7,0,90.8-2.1,149.7-10.3c78.9-11.1,122.5-28.3,133.2-52.6   c0.3-0.7,0.5-1.5,0.6-2.3c0.3-3.3,0.6-6.7,1-10.2c2-21,4.3-44.7,3.8-63.7C771.5,730.7,769.6,724.3,765.7,719.1z M236,420.4   c5.7-1.4,11.7-3.1,18.1-4.9c36.8-10.3,92.3-25.9,216-25.9c150.2,0,252.5,22.3,264.4,29.4c12.1,7.2,22.8,21.9,19.9,36.2   c-2.4,11.7-13.1,20.2-22.4,24.1c-12.7,5.4-25.9,8.9-38.3,10.1c-94.3,8.7-330.4,16.8-448.5-4.2c-32-5.7-47.6-14.8-49.1-28.7   C193.7,435.3,225.8,423.6,236,420.4z M198.7,514.7c-0.4-8.5-0.7-15.8-1.1-22.9c-0.1-2.8-0.3-5.4-0.4-8.1   c14.6,10.6,35.3,14.3,45.4,16.1c56.2,10,138.7,13.5,220.1,13.5c91.7,0,182.1-4.5,232.4-9.1c13.9-1.3,28.7-5.2,42.8-11.2   c5.7-2.4,10.8-5.6,15.2-9.3c-0.1,1.6-0.1,3.1-0.2,4.7c-0.4,9.7-0.7,19.8-1.3,30.4c-1.9,3.2-7.1,7.9-20.5,12.7c-0.1,0-0.1,0-0.2,0.1   c-0.1,0-0.2,0.1-0.3,0.1c-0.1,0-0.2,0.1-0.3,0.1c-6.5,2.3-14.8,4.6-25.5,6.8c-25.1,5.1-59.5,8.8-102.3,10.9   c-77.4,3.9-163.9,1.8-210.4,0.7c-10.1-0.2-18.2-0.4-24-0.5c-17.1-0.2-57.5-3.3-93.7-9.3C216.1,530.8,202.1,519.4,198.7,514.7z    M296.3,652c-20-33.8-40.5-68.7-62.9-104.8c11.1,3,24,5.7,38.6,8.1c39.1,6.5,79.6,9.3,96,9.5c5.7,0.1,13.7,0.3,23.8,0.5   c20.8,0.5,49.7,1.2,82.2,1.4c-6.7,12.7-13.5,25.6-20.5,39C425,660,395.7,716,363.5,763.8C339.5,725.2,317.5,688,296.3,652z    M353.1,775.4c-11.5-1.2-22.5-2.6-32.8-4.3c-55.1-8.7-81.1-20.6-93.3-29.8c-0.1-6-0.1-12.1-0.2-18.1c0,0,0-0.1,0-0.1   c-0.6-53.7-1.2-107.4-1.8-161c20.6,33.5,39.8,66,58.4,97.5C305.3,696.9,328.1,735.4,353.1,775.4z M466.8,612.6   c7-13.4,13.7-26.2,20.4-38.8c21.9,32.9,44.6,64.1,66.6,94.3c23.2,31.9,47.2,64.9,70.2,99.7c-43.3,7.5-96.3,12-149.8,12.7   c-35.1,0.5-69.9-0.7-101.6-3.3C406.5,727.7,437.1,669.2,466.8,612.6z M565.9,659.3c-21.6-29.7-43.9-60.4-65.4-92.6   c33.3,0,68.9-0.6,102.8-2.3c56.9-2.8,93.7-8.1,117.8-14.3C695.3,618.9,663,693,632.3,753.4C610.4,720.6,587.8,689.5,565.9,659.3z    M725.5,580.5c-0.1,15.7-0.2,31.7-0.3,47.6c-0.2,36.4-0.4,72.7-0.7,106.7c-15.6,11.5-43.3,21.5-80.8,29.4   C671.5,709.8,700.8,643.9,725.5,580.5z M752.5,800c-0.3,3-0.6,6-0.8,8.9c-5.6,10.9-29.1,30-121.1,42.8   c-63,8.8-128.5,10.5-154.3,10.2c-1.2,0-2.8,0-4.5-0.1c-22.4-0.3-81.9-0.9-141.4-7.1c-87.1-9-119.8-24.1-131.6-35.8   c-0.2-5.5-0.5-11.2-0.7-16.9c-0.4-8.9-0.8-17.9-1.2-26.6c5.6,4.7,11.9,8.4,17.2,10.8c47.4,21,156.5,39.3,268.8,39.3   c76,0,153.5-8.4,214.3-29.9c26.6-9.4,46.1-19.1,58.2-28.8C754.6,777.8,753.5,789.3,752.5,800z M755.3,743.9   c-2.2,8.1-19.9,22.2-63.1,37.5c-65.8,23.3-159.4,33.1-263.8,27.7c-85.1-4.4-168.8-19.1-208.3-36.6c-15.7-6.9-25.8-19.6-24-25.8   c1.7-6,8.3-12.5,15.8-14.8c0,4.4,0.1,8.8,0.1,13.2c0,2.2,1,4.2,2.6,5.6c18.1,15.5,52.9,27.4,103.3,35.3   c40.7,6.4,88.9,9.7,140.2,9.7c5.3,0,10.7,0,16.1-0.1c56.4-0.8,112.1-5.7,157.1-13.8c50.9-9.2,86.3-21.8,105.4-37.6   c1.7-1.4,2.7-3.5,2.7-5.7c0-5.8,0.1-11.7,0.1-17.7c6.6,1.2,11.4,3.6,14,7.2C757.2,732.8,756.5,739.3,755.3,743.9z M752.8,83.1   c-11-0.1-20.8,4.9-28.7,9c-45.5,23.5-117.4,60-187,95.3c-16.2,8.2-32.5,16.5-48.4,24.6c-20.9-8.2-42.3-16.6-63.6-25   c-75.3-29.5-153.2-60.1-199.1-79.6c-17.8-7.6-31-7-39.2,1.8c-9.2,9.8-6.2,25.5,1.7,34.4c7.4,8.2,17.8,11.9,26.1,14.9   c48.4,17.3,124.6,45.2,198.3,72.2c7.5,2.8,15.1,5.5,22.6,8.3c-34.6,17.6-62,31.6-83.2,42.5c-14.8-9.5-36.7-9.1-50.3,1.7   c-14.9,11.8-19.8,34.3-11,51.2c7,13.6,22.1,22,37.2,22c3.7,0,7.4-0.5,11-1.6c16.9-5,29.7-21.6,30.7-38.7   C404,300.8,452,278,491.2,259.3c43.9,16.1,84.7,30.9,115.5,41.9c3.2,17.3,18.4,33,35.5,35.6c1.9,0.3,3.8,0.4,5.7,0.4   c16.9,0,33.5-11.2,39.2-27.3c6.4-17.9-1.5-39.5-17.9-49.2c-15.2-8.9-36.1-7-49.2,3.9c-20.6-8.7-46.7-19.2-75.8-30.8   c5-2.4,10.1-4.8,15.2-7.3c73.1-35,148.6-71.2,194.3-91.6c17.7-7.9,26.2-17.9,25.4-29.9C778.2,91.8,764.8,83.3,752.8,83.1z    M359.3,304.4c-3,1.3-4.7,4.4-4.4,7.6c1.2,11.6-8.1,24.9-19.9,28.4c-11.4,3.4-25.1-2.4-30.6-13c-5.5-10.5-2.3-25.1,7-32.5   c9.2-7.3,26.4-6.7,35.4,1c2.3,2,5.6,2.4,8.3,1c24.1-12.4,56.7-29.1,99.7-51c5.6,2.1,11.2,4.1,16.7,6.1   C433.4,270.2,389.8,290.8,359.3,304.4z M618.7,280.5c3,1.3,6.4,0.5,8.6-2c7.7-8.8,23.7-11,34.3-4.8c10.2,6,15.3,20,11.4,31.2   c-4,11.2-16.8,18.8-28.5,17c-11.6-1.8-22.9-14.7-23.4-26.6c-0.1-3.1-2.1-5.7-5-6.8c-31.8-11.4-75.6-27.3-122.7-44.6   c0,0-0.1,0-0.1,0c-24.6-9-50.1-18.3-75.3-27.6c-73.7-27-149.9-54.9-198.4-72.3c-7.1-2.5-15.2-5.4-20-10.8   c-3.5-3.9-5.1-10.7-1.9-14.1c1.6-1.7,3.9-2.3,6.7-2.3c4.8,0,10.7,2,15.7,4.1c46.2,19.6,124.1,50.2,199.5,79.7   C494.9,230.5,572.8,261,618.7,280.5z M747.6,121.4c-45.9,20.4-121.5,56.7-194.7,91.7c-9.2,4.4-18.5,8.9-27.7,13.3   c-5.9-2.3-11.9-4.7-18-7.1c12.1-6.1,24.3-12.3,36.6-18.6c69.6-35.3,141.6-71.8,187.1-95.4c6.6-3.4,14.1-7.3,21.2-7.3   c0.1,0,0.2,0,0.3,0c5.2,0.1,11.3,3.6,11.6,8.2C764.6,112.5,755.4,117.9,747.6,121.4z"/>
</g>
<g class="st0" id="flat">
<g class="st3">
<g>
<g>
<g>
<g>
<g>
<g>
<g>
<g>
<path class="st8" d="M771.7,105.7c-0.6-8.9-10.1-15-19-15.2c-8.9-0.2-17.2,4-25.1,8.1C671,127.9,575.4,176.3,489,220.1            c-95.7-37.7-206.4-80.6-266-105.8c-10.1-4.3-23.3-8-30.8,0c-6.1,6.5-4.1,17.6,1.8,24.2c5.9,6.6,14.7,9.8,23.1,12.8            l237.1,86.4c-39.6,20.1-75.6,38.5-102.6,52.5c-11.7-10.1-32.8-10.8-44.9-1.2c-12.1,9.6-16.1,28.1-9,41.8            c7.1,13.7,24.6,21.1,39.4,16.7c14.8-4.4,26.8-20.9,25.2-36.3c32.1-14.3,78.2-36.1,128.5-60.1            c47.4,17.3,90.8,33.2,122.8,44.6c0.6,15.4,14.4,31.4,29.7,33.7c15.3,2.3,31.5-7.4,36.7-21.9c5.2-14.6-1.3-32.4-14.6-40.2            c-13.3-7.8-33.6-5.3-43.8,6.3c-24.8-10.5-58.4-24.1-96.1-39c83.9-40.2,173-83.1,225.1-106.3            C760.7,123.8,772.4,116.7,771.7,105.7z"/>
</g>
</g>
</g>
</g>
</g>
</g>
</g>
</g>
<g>
<g>
<g>
<g>
<g>
<g>
<g>
<g>
<path class="st7" d="M490.8,258.7c-1.1,0-2.3-0.3-3.4-0.8c-5.6-2.8-25.9-9.8-35.5-13c-3.9-1.3-6.1-5.5-4.8-9.5            c1.3-3.9,5.5-6.1,9.5-4.8c6.1,2,30.2,10.1,37.6,13.8c3.7,1.9,5.2,6.4,3.3,10.1C496.2,257.2,493.6,258.7,490.8,258.7z"/>
</g>
</g>
</g>
</g>
</g>
</g>
</g>
</g>
<g>
<g>
<g>
<g>
<g>
<g>
<g>
<g>
<path class="st7" d="M525.6,242.1c-1,0-2.1-0.2-3.1-0.7c-3.3-1.5-7.7-3.1-13.2-5.2c-6.2-2.3-13.9-5.3-23.2-9.1            c-3.8-1.6-5.6-6-4-9.8c1.6-3.8,6-5.6,9.8-4c9,3.8,16.6,6.6,22.7,9c5.7,2.2,10.2,3.9,14,5.6c3.8,1.7,5.5,6.1,3.8,9.9            C531.2,240.4,528.4,242.1,525.6,242.1z"/>
</g>
</g>
</g>
</g>
</g>
</g>
</g>
</g>
<g>
<g>
<g>
<g>
<g>
<g>
<g>
<g>
<path class="st9" d="M763.8,737.6c0.3-13.3-8.4-24.2-31.6-25.1c-0.1,8.8-512.8,18.1-512.9,10.9            c-13.9-0.9-27.4,10.2-30.5,21.2c-0.4,1.6-0.6,3.1-0.5,4.7c0,0.1,0,0.1,0,0.2v0.1c0.6,21.4,1.9,48.8,2.9,72.4            c39.9,46.4,253.2,47,284.9,47.4c59.4,0.8,260.9-8.6,282.8-58.5C761.1,787.9,764.3,759.2,763.8,737.6z"/>
</g>
</g>
</g>
</g>
</g>
</g>
</g>
</g>
<g>
<g>
<g>
<g>
<g>
<g>
<g>
<g>
<path class="st8" d="M633.2,773.8c44.5-8.3,80.3-21,98.8-36.3c0.1-8.5,0.1-17.2,0.2-26c0.4-55.7,1.5-117.2,1.8-173.2            l-246.9-4.2h-270c0.7,63.1,1.4,126.1,2.1,189.2c0.1,7.2,0.2,14.4,0.2,21.5C273.6,791.2,495.4,799.5,633.2,773.8"/>
</g>
</g>
</g>
</g>
</g>
</g>
</g>
</g>
<g>
<g>
<g>
<g>
<g>
<g>
<g>
<g>
<path class="st10" d="M486,559.2c-37.9,70.6-77.9,160.1-123.1,224.8c-52.9-84.3-92.8-165.4-145.8-249.7            c58.6-5.8,132.1-1.7,156.4-1.4C392.8,533.1,440.5,546,486,559.2z"/>
</g>
</g>
</g>
</g>
</g>
</g>
</g>
</g>
<g>
<g>
<g>
<g>
<g>
<g>
<g>
<g>
<path class="st10" d="M734,538.4c-0.2,0.7-0.5,1.4-0.7,2c-25.1,68.6-62.7,161.5-100,233.4            c-47.8-73-98.3-141.6-146.1-214.6C578.3,533.5,688.2,526.8,734,538.4z"/>
</g>
</g>
</g>
</g>
</g>
</g>
</g>
</g>
<g>
<g>
<g>
<g>
<g>
<g>
<g>
<g>
<path class="st9" d="M738.3,412.5C723,403.4,616.2,382,470,382C324,382,272.8,403.4,234,413.1            c-21.9,6.8-46.8,20.6-45.3,44c0.6,21.4,1.7,36,2.7,59.8c3.3,6.7,12.8,12.5,25.8,17.3c43.5,16.3,126.5,22.7,150.9,23            c19.2,0.3,64.6,1.8,117.9,2l1.2,0c88.1,0.3,197.6-2.8,246.9-20.8c13-4.8,21.9-10.5,25-17.6c1.2-22.6,1.5-41.6,2.7-64.2            C762.3,436.9,753.6,421.5,738.3,412.5z"/>
</g>
</g>
</g>
</g>
</g>
</g>
</g>
</g>
<g>
<g>
<g>
<g>
<g>
<g>
<g>
<g>
<path class="st6" d="M284.2,427.2c134.8-23.9,272.7-24.3,407.6-1.1c7.7,1.3,16.9,3.4,23.2,8c24.5,17.6-9.6,33.1-47.7,36            c-74.1,5.6-125,4.8-199.3,5.2c-37.6,0.2-75.2,0-112.8-0.7c-19.2-0.3-40.7-2.4-62.2-5.5c-16.5-2.4-51.1-5.9-53.2-18.9            C237.7,437.4,268.6,429.9,284.2,427.2z"/>
</g>
</g>
</g>
</g>
</g>
</g>
</g>
</g>
<g>
<g>
<g>
<g>
<g>
<g>
<g>
<g>
<path class="st7" d="M462.7,516.3c-81.4,0-163.9-3.5-220.1-13.5c-8.3-1.5-20.7-4-31.7-8.5c-3.8-1.6-5.6-6-4.1-9.8            c1.6-3.8,6-5.6,9.8-4.1c9.7,4,20.9,6.3,28.6,7.6c57.1,10.2,253.5,22.3,448.5,4.2c12.4-1.1,25.6-4.6,38.3-10.1            c3.8-1.6,8.2,0.1,9.8,3.9c1.6,3.8-0.1,8.2-3.9,9.8c-14.1,6-28.9,9.9-42.8,11.2C644.7,511.9,554.3,516.3,462.7,516.3z"/>
</g>
</g>
</g>
</g>
</g>
</g>
</g>
</g>
<g>
<g>
<g>
<g>
<g>
<g>
<g>
<path class="st7" d="M762,514c-3.8-1.7-8,0.1-9.9,3.8c-7.5,15.1-36.5,18.5-47.3,20.7c-25.1,5.1-59.5,8.8-102.3,10.9           c-77.4,3.9-163.9,1.8-210.4,0.7c-10.1-0.2-18.2-0.4-24-0.5c-17.1-0.2-57.5-3.3-93.7-9.3c-63.8-10.6-74.6-23.3-76.4-26.9           c-1.8-3.7-6.3-5.2-10-3.4c-3.7,1.8-5.2,6.3-3.4,10c3.6,7.3,11.9,13.6,25.1,19.1c0.8,68.6,1.5,137.1,2.3,205.7           c0,2.2,1,4.2,2.6,5.6c18.1,15.5,52.9,27.4,103.3,35.3c40.7,6.4,88.9,9.7,140.2,9.7c5.3,0,10.7,0,16.1-0.1           c56.4-0.8,112.1-5.7,157.1-13.8c50.9-9.2,86.3-21.8,105.4-37.6c1.7-1.4,2.7-3.5,2.7-5.7c0.2-35.1,0.5-72.7,0.7-110.4           c0.2-28.4,0.3-56.8,0.5-84.3c16.5-6.7,22.4-13.9,25.1-20C767.5,520,765.8,515.6,762,514z M725.2,628           c-0.2,36.4-0.4,72.7-0.7,106.7c-17.6,13-50.6,24.1-95.8,32.3c-44.2,8-99.1,12.8-154.6,13.5c-55.6,0.8-110.3-2.6-153.8-9.4           c-55.1-8.7-81.1-20.6-93.3-29.8c-0.7-65.5-1.5-131.1-2.2-196.6c12.8,3.9,28.7,7.5,47.2,10.6c39.1,6.5,79.6,9.3,96,9.5           c5.7,0.1,13.7,0.3,23.8,0.5c26.1,0.6,64.8,1.5,107.4,1.5c33.6,0,69.7-0.6,104-2.3c60.7-3,98.6-8.8,122.4-15.6           C725.5,574.8,725.4,601.4,725.2,628z"/>
</g>
</g>
</g>
</g>
</g>
</g>
</g>
<g>
<g>
<g>
<g>
<g>
<g>
<g>
<g>
<path class="st7" d="M482.8,825.4c-112.3,0-221.4-18.3-268.8-39.3c-15.4-6.8-37.8-24.7-32.4-43.6c1.1-4,5.3-6.3,9.3-5.2            c4,1.1,6.3,5.3,5.2,9.3c-1.8,6.2,8.4,18.8,24,25.8c39.5,17.5,123.2,32.2,208.3,36.6c104.3,5.4,198-4.4,263.8-27.7            c43.2-15.3,60.9-29.4,63.1-37.5c1.1-4,5.2-6.4,9.2-5.3c4,1.1,6.4,5.2,5.3,9.2c-4.3,16.2-28.7,32.3-72.6,47.8            C636.3,817.1,558.8,825.4,482.8,825.4z"/>
</g>
</g>
</g>
</g>
</g>
</g>
</g>
</g>
</g>
</g>
<g class="st0" id="colored_x5F_line">
<g class="st3">
<g>
<path class="st8" d="M633.2,773.8c44.5-8.3,80.3-21,98.8-36.3c0.1-8.5,0.1-17.2,0.2-26c0.4-55.7,1.5-117.2,1.8-173.2     c0,0-74.5,26.3-247.5,20.8c-189.5,5.5-269.3-25-269.3-25c0.7,63.1,1.4,126.1,2.1,189.2c0.1,7.2,0.2,14.4,0.2,21.5     C273.6,791.2,495.4,799.5,633.2,773.8"/>
</g>
</g>
<g class="st3">
<path class="st16" d="M771.3,737.8c0.2-7.1-1.7-13.5-5.5-18.7c-5.4-7.3-14.1-11.8-26-13.4c0.2-25.2,0.3-51.3,0.5-77.5    c0.2-28.4,0.3-56.8,0.5-84.3c16.5-6.7,22.4-13.9,25.1-20c0.4-0.8,0.6-1.7,0.6-2.6c0.6-11.4,1-22,1.4-32.2    c0.4-10.2,1.3-24.7,1.9-35.9c0,0,0-0.1,0-0.1c0.6-8.4-1.5-17-6.2-25.2c-4.9-8.7-12.6-16.4-21.5-21.7c-10-5.9-44.4-13.6-87.9-19.6    c-39.3-5.4-103.1-11.9-184.2-11.9c-125.8,0-182.5,15.9-220.1,26.5c-6.3,1.8-12.3,3.5-17.9,4.8c-0.1,0-0.3,0.1-0.4,0.1    c-9.7,3-23.5,8.4-34.4,17.4c-11.9,9.7-17.5,21.5-16.2,34.1c0.4,13.1,0.9,23.8,1.5,35.1c0.4,7.5,0.8,15.3,1.2,24.6    c0,1,0.3,2.1,0.8,3c3.6,7.3,11.9,13.6,25.1,19.1c0.7,59,1.3,118.1,2,177.1c-14.6,2.7-26.8,14.5-30.1,26.1    c-0.7,2.5-0.9,4.9-0.7,7.4c0.4,15.7,1.3,34.5,2.1,52.7c0.3,6.7,0.6,13.3,0.9,19.7c0.1,1.7,0.7,3.3,1.8,4.6    c17.7,20.7,64.6,34.7,143.1,42.8c60.2,6.2,120.2,6.9,142.8,7.2c1.8,0,3.3,0,4.5,0.1c2.1,0,4.4,0,6.9,0c29.7,0,90.8-2.1,149.7-10.3    c78.9-11.1,122.5-28.3,133.2-52.6c0.3-0.7,0.5-1.5,0.6-2.3c0.3-3.3,0.6-6.7,1-10.2C769.4,780.5,771.7,756.8,771.3,737.8z     M236,420.4c5.7-1.4,11.7-3.1,18.1-4.9c36.8-10.3,92.3-25.9,216-25.9c150.2,0,252.5,22.3,264.4,29.4c12.1,7.2,22.8,21.9,19.9,36.2    c-2.4,11.7-13.1,20.2-22.4,24.1c-12.7,5.4-25.9,8.9-38.3,10.1c-94.3,8.7-330.4,16.8-448.5-4.2c-32-5.7-47.6-14.8-49.1-28.7    C193.7,435.3,225.8,423.6,236,420.4z M198.7,514.7c-0.4-8.5-0.7-15.8-1.1-22.9c-0.2-3-0.3-5.6-0.4-8.1    c14.6,10.6,35.3,14.3,45.4,16.1c56.2,10,138.7,13.5,220.1,13.5c91.7,0,182.1-4.5,232.4-9.1c13.9-1.3,28.7-5.2,42.8-11.2    c5.7-2.4,10.8-5.6,15.2-9.3c-0.1,1.5-0.1,3-0.2,4.7c-0.4,9.7-0.7,19.8-1.3,30.4c-2.9,4.8-12.9,12.8-46.7,19.7    c-25.1,5.1-59.5,8.8-102.3,10.9c-77.4,3.9-163.9,1.8-210.4,0.7c-10.1-0.2-18.2-0.4-24-0.5c-17.1-0.2-57.5-3.3-93.7-9.3    C216.1,530.8,202.1,519.4,198.7,514.7z M225,562.1c20.6,33.5,39.8,66,58.4,97.5c22,37.3,44.7,75.7,69.7,115.8    c-11.5-1.2-22.5-2.6-32.8-4.3c-55.1-8.7-81.1-20.6-93.3-29.8C226.3,681.6,225.6,621.8,225,562.1z M296.3,652    c-20-33.8-40.5-68.7-62.9-104.8c11.1,3,24,5.7,38.6,8.1c39.1,6.5,79.6,9.3,96,9.5c5.7,0.1,13.7,0.3,23.8,0.5    c20.8,0.5,49.7,1.2,82.2,1.4c-6.7,12.7-13.5,25.6-20.5,39C425,660,395.7,716,363.5,763.8C339.5,725.2,317.5,688,296.3,652z     M466.8,612.6c7-13.4,13.7-26.2,20.4-38.8c21.9,32.9,44.6,64.1,66.6,94.3c23.2,31.9,47.2,64.9,70.2,99.7    c-43.3,7.5-96.3,12-149.8,12.7c-35.1,0.5-69.9-0.7-101.6-3.3C406.5,727.7,437.1,669.2,466.8,612.6z M565.9,659.3    c-21.6-29.7-43.9-60.4-65.4-92.6c33.3,0,68.9-0.6,102.8-2.3c56.9-2.8,93.7-8.1,117.8-14.3C695.3,618.9,663,693,632.3,753.4    C610.4,720.6,587.8,689.5,565.9,659.3z M725.5,580.5c-0.1,15.7-0.2,31.7-0.3,47.6c-0.2,36.4-0.4,72.7-0.7,106.7    c-15.6,11.5-43.3,21.5-80.8,29.4C671.5,709.8,700.8,643.9,725.5,580.5z M752.5,800c-0.3,3-0.6,6-0.8,8.9    c-5.6,10.9-29.1,30-121.1,42.8c-63,8.8-128.5,10.5-154.3,10.2c-1.2,0-2.8,0-4.5-0.1c-22.4-0.3-81.9-0.9-141.4-7.1    c-87.1-9-119.8-24.1-131.6-35.8c-0.2-5.5-0.5-11.2-0.7-16.9c-0.4-8.9-0.8-17.9-1.2-26.6c5.6,4.7,11.9,8.4,17.2,10.8    c47.4,21,156.5,39.3,268.8,39.3c76,0,153.5-8.4,214.3-29.9c26.6-9.4,46.1-19.1,58.2-28.8C754.6,777.8,753.5,789.3,752.5,800z     M755.3,743.9c-2.2,8.1-19.9,22.2-63.1,37.5c-65.8,23.3-159.4,33.1-263.8,27.7c-85.1-4.4-168.8-19.1-208.3-36.6    c-15.7-6.9-25.8-19.6-24-25.8c1.7-6,8.3-12.5,15.8-14.8c0,4.4,0.1,8.8,0.1,13.2c0,2.2,1,4.2,2.6,5.6    c18.1,15.5,52.9,27.4,103.3,35.3c40.7,6.4,88.9,9.7,140.2,9.7c5.3,0,10.7,0,16.1-0.1c56.4-0.8,112.1-5.7,157.1-13.8    c50.9-9.2,86.3-21.8,105.4-37.6c1.7-1.4,2.7-3.5,2.7-5.7c0-5.8,0.1-11.7,0.1-17.7c6.6,1.2,11.4,3.6,14,7.2    C757.2,732.8,756.5,739.3,755.3,743.9z"/>
<path class="st16" d="M287.4,475.8c1.6,0.2,3.1,0.4,4.5,0.6c23.6,3.4,44.8,5.2,63.1,5.6c28.7,0.5,57.7,0.8,86.6,0.8    c8.8,0,17.6,0,26.4-0.1c11.5-0.1,22.4-0.1,33-0.1c58.1-0.2,103.9-0.3,166.9-5.1c25.8-2,57.5-10.3,62.3-27.2    c1.6-5.5,1-13.9-10.8-22.4c-7.7-5.5-18.1-7.8-26.3-9.3c-136.1-23.4-274.2-23-410.2,1.1c-6.7,1.2-19.6,3.8-30.3,8.2    c-14.9,6-21.7,13.9-20.2,23.3C235,467.4,259.9,472.1,287.4,475.8z M285.5,434.6c134.3-23.8,270.6-24.2,405-1.1    c6.7,1.1,15,2.9,20.1,6.6c3.9,2.8,5.4,5.1,5.1,6.1c-1.2,4.3-17.3,13.9-49,16.3c-62.4,4.7-108,4.9-165.8,5.1    c-10.6,0-21.5,0.1-33,0.1c-37.4,0.2-75.3,0-112.6-0.7c-17.7-0.3-38.3-2.1-61.2-5.4c-1.4-0.2-3-0.4-4.6-0.6    c-8.4-1.1-19.9-2.7-29.1-5.3c-12-3.4-13.1-6.7-13.1-6.7C247.7,446.5,258.2,439.4,285.5,434.6z"/>
</g>
<g class="st3">
<g>
<path class="st8" d="M771.7,105.7c-0.6-8.9-10.1-15-19-15.2c-8.9-0.2-17.2,4-25.1,8.1C671,127.9,575.4,176.3,489,220.1     c-95.7-37.7-206.4-80.6-266-105.8c-10.1-4.3-23.3-8-30.8,0c-6.1,6.5-4.1,17.6,1.8,24.2c5.9,6.6,14.7,9.8,23.1,12.8l237.1,86.4     c-39.6,20.1-75.6,38.5-102.6,52.5c-11.7-10.1-32.8-10.8-44.9-1.2c-12.1,9.6-16.1,28.1-9,41.8c7.1,13.7,24.6,21.1,39.4,16.7     c14.8-4.4,26.8-20.9,25.2-36.3c32.1-14.3,78.2-36.1,128.5-60.1c47.4,17.3,90.8,33.2,122.8,44.6c0.6,15.4,14.4,31.4,29.7,33.7     c15.3,2.3,31.5-7.4,36.7-21.9c5.2-14.6-1.3-32.4-14.6-40.2c-13.3-7.8-33.6-5.3-43.8,6.3c-24.8-10.5-58.4-24.1-96.1-39     c83.9-40.2,173-83.1,225.1-106.3C760.7,123.8,772.4,116.7,771.7,105.7z"/>
</g>
</g>
<g class="st3">
<g>
<path class="st16" d="M490.8,258.7c-1.1,0-2.3-0.3-3.4-0.8c-5.6-2.8-25.9-9.8-35.5-13c-3.9-1.3-6.1-5.5-4.8-9.5     c1.3-3.9,5.5-6.1,9.5-4.8c6.1,2,30.2,10.1,37.6,13.8c3.7,1.9,5.2,6.4,3.3,10.1C496.2,257.2,493.6,258.7,490.8,258.7z"/>
</g>
</g>
<g class="st3">
<g>
<path class="st16" d="M525.6,242.1c-1,0-2.1-0.2-3.1-0.7c-3.3-1.5-7.7-3.1-13.2-5.2c-6.2-2.3-13.9-5.3-23.2-9.1     c-3.8-1.6-5.6-6-4-9.8c1.6-3.8,6-5.6,9.8-4c9,3.8,16.6,6.6,22.7,9c5.7,2.2,10.2,3.9,14,5.6c3.8,1.7,5.5,6.1,3.8,9.9     C531.2,240.4,528.4,242.1,525.6,242.1z"/>
</g>
</g>
</g>
</svg>