<?xml version="1.0" ?>
<!-- Uploaded to: SVG Repo, www.svgrepo.com, Generator: SVG Repo Mixer Tools -->
<svg width="800px" height="800px" viewBox="0 0 960 960" version="1.1" xml:space="preserve" xmlns="http://www.w3.org/2000/svg" xmlns:xlink="http://www.w3.org/1999/xlink">
<style type="text/css">
	.st0{display:none;}
	.st1{display:inline;opacity:0.93;}
	.st2{display:inline;fill:none;stroke:#000000;stroke-width:15;stroke-linecap:round;stroke-linejoin:round;stroke-miterlimit:10;}
	.st3{display:inline;}
	.st4{fill:none;stroke:#000000;stroke-width:15;stroke-linecap:round;stroke-linejoin:round;stroke-miterlimit:10;}
	.st5{display:inline;fill:none;stroke:#1A1D3F;stroke-width:15;stroke-linecap:round;stroke-linejoin:round;stroke-miterlimit:10;}
	.st6{fill:#DDEDE7;}
	.st7{fill:#1A1D3F;}
	.st8{fill:#E9B44D;}
	.st9{fill:#ED644E;}
	.st10{fill:#494EDF;}
	.st11{fill:#3DC5A1;}
	.st12{fill:#F6CEC1;}
	.st13{fill:none;}
	.st14{fill:none;stroke:#1A1D3F;stroke-width:15;stroke-linecap:round;stroke-linejoin:round;stroke-miterlimit:10;}
	.st15{display:inline;fill:#E9B44D;}
	.st16{fill:#222222;}
	.st17{display:inline;fill:#222222;}
</style>
<g class="st0" id="guide"/>
<g class="st0" id="sketch"/>
<g class="st0" id="stroke">
<path class="st2" d="M636.2,181.6c37.7-9.4,66.1-16.4,103.8-25.8"/>
<path class="st2" d="M647.2,215.6c13.3-4.2,21-4.2,34.3-8.4c3.3,64.8,0.3,260,3.3,331"/>
<path class="st2" d="M722.3,533.4c-0.5-83.1-1.6-256.6-2-332.4c9.9-3.2,19.8-6.3,29.7-9.5"/>
<path class="st2" d="M749.9,191.6c-1.8,4.4,3.4,13,7.8,15c4.3,2,9.3,1.7,14,1.2c14.7-1.4,73.5-16.2,93.5-23.2   c8.1-2.8,22.3-20.3,6.9-49.9c-11.3-21.6-33.7-20.4-40.3-19c-23.4,4.9-46.8,9.7-70.2,14.6c-6.3,1.3-12.9,2.8-17.6,7.2   c-4.7,4.4-8.6,13.9-4,18.3c4.4-1.2,14.7,2.4,19.2,14.6C762.5,179.3,753.9,189.4,749.9,191.6z"/>
<path class="st2" d="M526,265.4c4.3,2,9.3,1.7,14,1.2c14.7-1.4,73.5-16.2,93.5-23.2c8.1-2.8,22.3-20.3,6.9-49.9   c-11.3-21.6-33.7-20.4-40.3-19c-23.4,4.9-46.8,9.7-70.2,14.6c-6.3,1.3-12.9,2.8-17.6,7.2c-4.7,4.4-15.9,16.6-9.1,40.9   S521.7,263.4,526,265.4z"/>
<path class="st2" d="M665.6,632.7c0.6-18.9,1.1-41.4,1.6-57.4c0.4-10.7,1.1-22.2,8.1-30.2c2.6-3,5.9-5.2,9.4-6.8   c6.4-2.9,13.9-4,21-4.7c5.4-0.6,11.2-1,16.5-0.1c4.9,0.8,9.3,2.7,12.6,6.4c5.3,6,5.6,14.7,5.6,22.7c0.1,15.3,2,42.4,2.9,62.7v0"/>
<path class="st2" d="M624.7,747.4c-126.7,7.2-245.9,3.9-372.6,11.2c-3.3-34.3-25.1-63.8-43-73.4s-44.1-18.1-64.1-15.1   c-8.5,0.5-13.9-6.9-12.6-16.4c1.2-8.8,12.5-11.8,15.9-12.3c39.6-5.5,66.1,5.7,86.3,17.2c20.2,11.4,36.6,34.6,44.4,56.4   c162,1.7,215.8-6.9,317-4.7c11.7-31.1,34.1-63.4,68.1-77c60.5-24.2,107.9-2.4,138.7,17.6c21.3,14.6,9.6,41.1-14.2,33.8   c-27.7-13.5-61.6-32.6-113.5-8C644.2,691.3,632.8,714.5,624.7,747.4z"/>
<path class="st2" d="M106.9,713.6c-20.4,15.8-29.8,44-24.3,69.2c5.5,25.2,25.1,46.5,49.3,55.5c22.3,8.3,49.3,5.8,67.2-9.9   c11.7-10.2,18.7-25.1,21.9-40.3c3.2-15.2,2.8-31.4-3.6-45.6c-8-17.8-27.1-29.5-44.8-36.2C150.7,698,126.2,698.7,106.9,713.6z"/>
<path class="st2" d="M138.8,781.1c17,14.2,38.9-13,23.3-26.9C145.9,739.9,121.2,766.4,138.8,781.1z"/>
<path class="st2" d="M662.8,731.1c-14.2,26.5-9.7,61.8,10.7,83.9s55.2,29.4,82.8,17.4c27.6-12,45.9-42.5,43.6-72.5   C794.4,687.9,696.9,667.5,662.8,731.1z"/>
<path class="st2" d="M726.3,746.8c-9.8-0.9-19.7,7-20.8,16.8c-1.1,9.8,6.6,19.8,16.4,21.1c9.8,1.3,19.9-6.3,21.4-16   c1.5-9.8-5.9-20.1-15.6-21.7"/>
</g>
<g id="outline">
<path d="M830.2,108.4L760,123c-6.3,1.3-14.8,3.1-21.2,9c-4.2,3.9-8.4,11-8.4,18.2c0,0.1,0,0.2,0,0.2l-96,23.8   c-0.2,0.1-0.5,0.1-0.7,0.2c-12.1-8.7-26.6-9.1-35.2-7.3l-70.2,14.6c-6.3,1.3-14.8,3.1-21.2,9c-12.7,11.8-16.7,29-11.2,48.4   c7.1,25.2,19.7,30.1,25.7,32.5c0.5,0.2,0.9,0.3,1.2,0.5c3.8,1.8,7.7,2.3,11.5,2.3c2.2,0,4.3-0.2,6.4-0.4   c15.5-1.4,74.9-16.5,95.2-23.6c5.2-1.8,12.1-7.3,16-17.2c1.3-3.2,2.3-7.3,2.7-12.1c4-1,7.5-1.7,11.2-2.5c2.8-0.5,5.6-1.1,8.6-1.8   c1.3,35.5,1.3,97.9,1.4,158.4c0,60.4,0.1,122.7,1.4,158.5c-2.8,1.8-5.3,3.8-7.4,6.2c-9.1,10.4-9.7,25.1-10,34.9   c-0.3,9.6-0.6,21.4-1,33.8c-0.2,6.3-0.3,12.7-0.5,18.8c-28.6,12.6-52.8,39.6-67.3,75c-45-0.8-80.7,0.5-121.8,2   c-47.7,1.7-101.7,3.7-184.9,2.9c-9.7-23.8-26.9-44.7-45.8-55.5c-20.2-11.5-48.8-23.9-91-18.1c-7,1-20.6,6.1-22.3,18.7   c-1,7.3,0.9,14.3,5.3,19c3.9,4.2,9.3,6.3,15.2,5.9c0.2,0,0.4,0,0.7-0.1c19-2.8,43.9,5.9,59.5,14.3c21.2,11.4,36.8,43.9,39.1,67.6   c0.4,3.9,3.6,6.8,7.5,6.8c0.1,0,0.3,0,0.4,0c63.2-3.6,125.6-4.6,186-5.6c60.5-1,123.1-2,186.6-5.6c3.3-0.2,6.1-2.5,6.9-5.7   c7.7-31.4,17.8-52.3,46.2-65.8c46.1-21.9,76.4-7.1,103,6c1.4,0.7,2.7,1.3,4,2c0.3,0.2,0.7,0.3,1.1,0.4c16.2,5,28.1-2.5,32.7-12   c2.7-5.7,3.1-12.2,1.1-18.5c-2.1-6.5-6.6-12.3-13.1-16.7c0,0-0.1-0.1-0.1-0.1c-18.9-12.3-37.6-20.7-56.3-25.3   c-0.3-6-0.7-12.4-1-18.6c-0.8-14.1-1.6-28.6-1.6-38.1c0-7.7-0.1-19.2-7.5-27.6c-2.8-3.2-6.5-5.6-10.8-7.2   c-0.3-43.5-0.7-108.5-1.1-171.5c-0.4-57.4-0.7-113.2-0.9-149.6c5.4-1.7,10.7-3.4,16.1-5.1c2.3,5.4,6.6,10.1,10.7,12   c3.8,1.8,7.7,2.3,11.5,2.3c2.2,0,4.3-0.2,6.4-0.4c15.5-1.4,74.9-16.5,95.2-23.6c5.2-1.8,12.1-7.3,16-17.2c3.5-8.8,5.4-23.4-5-43.2   C866.4,107.8,842.4,105.9,830.2,108.4z M638,227.8c-2.3,5.8-5.9,8.1-7,8.5c-20.3,7.1-78.6,21.6-91.7,22.8   c-3.9,0.4-7.6,0.6-10.2-0.6c0,0,0,0,0,0c-0.7-0.3-1.3-0.6-2.1-0.9c-4.4-1.7-11.7-4.6-16.8-22.6c-4-14.1-1.6-25.3,7-33.3   c3.1-2.9,8-4,14.1-5.3l70.2-14.6c0.3-0.1,2.5-0.5,5.7-0.5c7.2,0,19.5,2.2,26.5,15.7C641.4,211.9,640.3,222,638,227.8z M743.1,632.8   c18.2,3.8,36.4,11.8,55.6,24.3c7.7,5.3,9,11.9,6.9,16.2c-2.2,4.6-7.6,6.2-14.3,4.3c-1.1-0.6-2.3-1.1-3.4-1.7   c-26.7-13.1-63.3-31.1-116-6.1c-31.8,15.1-44.6,39.1-53,70.4c-61.3,3.4-121.9,4.3-180.5,5.3c-58.3,0.9-118.5,1.9-179.6,5.2   c-5.6-33.9-27.2-62.1-46-72.2c-22.8-12.2-44.1-16.5-59.3-16.5c-3.4,0-6.4,0.2-9.1,0.6c-1.3,0-2.3-0.4-3-1.2   c-1.3-1.4-1.8-3.9-1.5-6.8c0.5-3.3,6.9-5.5,9.5-5.8c37.6-5.2,62.3,5.3,81.6,16.2c17,9.6,33.1,30.2,41,52.4c1.1,3,3.8,4.9,7,5   c86.5,0.9,141.9-1.1,190.7-2.9c42.5-1.5,79.2-2.9,126.2-1.9c3.2,0.1,6.1-1.9,7.2-4.9c13.2-35.2,36.5-61.7,63.9-72.7   C692.4,630,718,627.5,743.1,632.8z M729.3,544.8c3.4,3.8,3.7,10.6,3.7,17.7c0,9.9,0.9,24.6,1.7,38.9c0.3,5,0.6,10,0.8,14.9   c-20.6-2.8-41.2-0.9-62.1,5.7c0.1-4.2,0.2-8.5,0.3-12.8c0.3-12.4,0.6-24.1,1-33.7c0.4-10.5,1.1-19.7,6.3-25.5c1.7-2,4-3.6,6.9-4.9   c5.4-2.4,12.2-3.4,18.7-4.1c4.3-0.5,9.8-0.9,14.5-0.1C724.8,541.4,727.4,542.7,729.3,544.8z M746.7,184.7   c-9.6,3.1-19.2,6.1-28.8,9.2c-3.1,1-5.2,3.9-5.2,7.2c0.2,36.2,0.6,94.8,1,155.2c0.4,61.9,0.8,125.7,1,169.1c-3.5,0-6.9,0.3-9.8,0.6   c-4.3,0.5-8.7,1.1-13,2c-1.1-36.1-1.1-95.3-1.2-152.7c0-66.4-0.1-135.1-1.8-168.5c-0.1-2.3-1.3-4.5-3.2-5.8c-1.9-1.3-4.3-1.7-6.5-1   c-6.2,2-11.2,2.9-16.4,4c-3.1,0.6-6.2,1.2-9.7,2.1c-1.2-4.9-3.2-10.3-6.2-16.1c-0.6-1.1-1.1-2.1-1.7-3l96.5-23.9c0,0,0,0,0,0   c1.2,0,7.3,1.6,10.4,10C753.6,176.9,749,183,746.7,184.7z M869.7,169c-2.3,5.8-5.9,8.1-7,8.5c-20.3,7.1-78.6,21.6-91.7,22.8   c-3.9,0.4-7.6,0.6-10.1-0.6c-1.1-0.6-2.6-2.8-3.4-4.6c6.2-5.8,12.6-16.9,8.7-27.4c-4.3-11.5-13-17.6-20.5-19.2   c0.5-1.8,1.7-4.1,3.3-5.6c3.1-2.9,8-4,14.1-5.3l70.2-14.6c0.9-0.2,22-4.3,32.2,15.2C873.2,153.1,872,163.2,869.7,169z"/>
<path d="M204.1,834.1c15.2-13.2,21.6-31.5,24.3-44.5c2.7-12.8,4.2-31.9-4.1-50.2c-10.2-22.8-35.1-34.9-49-40.2   c-26.6-10-53.2-7-73,8.3c-22.4,17.3-33.3,48.2-27,76.8c5.9,27,27.1,50.9,54,60.9c9.3,3.5,19,5.1,28.5,5.1   C175.2,850.4,191.8,844.8,204.1,834.1z M90,781.2c-5-22.7,3.9-48,21.6-61.7c9.4-7.3,20.9-11,33.3-11c8.1,0,16.7,1.6,25.2,4.8   c11.7,4.4,32.6,14.5,40.6,32.3c6.6,14.6,5.3,30.3,3.1,40.9c-2.2,10.7-7.5,25.7-19.5,36.2c-15,13-38.4,16.4-59.7,8.5   C112.3,823,94.8,803.4,90,781.2z"/>
<path d="M168.2,783.3c8-9.3,10.3-24.5-1.2-34.7c-6.6-5.8-15-7.5-23.3-4.7c-9.2,3.2-16.5,11.5-18.2,20.8c-1.5,8.3,1.5,16.4,8.4,22.1   c4.8,4,10,5.7,15,5.7C156.5,792.6,163.5,788.8,168.2,783.3z M156.9,773.5c-6.1,7.1-12.1,2.8-13.2,1.8c-2.7-2.3-3.8-4.9-3.3-7.9   c0.7-4,4.2-8,8.3-9.4c1-0.3,2-0.5,2.9-0.5c2,0,3.8,0.8,5.5,2.3C162.3,764.4,159.4,770.6,156.9,773.5z"/>
<path d="M728.2,845.6c10.7,0,21.3-2.1,31.1-6.3c30.4-13.2,50.6-46.8,48.1-79.9c-2.8-36.2-27.8-64.5-63.7-72   c-36-7.6-70.3,8.2-87.4,40.2c-15.7,29.2-10.7,68.1,11.8,92.5C683.2,836.6,705.8,845.6,728.2,845.6z M669.5,734.6   c13.6-25.4,36.9-34,57.1-34c4.9,0,9.7,0.5,14.1,1.4c22.2,4.7,49.1,22.8,51.8,58.5c2.1,26.9-14.4,54.2-39.1,65   c-24.7,10.8-56,4.2-74.2-15.7C660.7,790.1,656.7,758.4,669.5,734.6z"/>
<path d="M721,792.2c1.1,0.1,2.1,0.2,3.2,0.2c12.7,0,24.7-9.9,26.6-22.6c2.1-13.8-8.1-27.9-21.8-30.3c-0.3-0.1-0.7-0.1-1-0.1   c-0.3-0.1-0.7-0.1-1-0.2c-13.8-1.3-27.4,9.6-29,23.5C696.5,776.6,707.2,790.4,721,792.2z M713,764.5c0.6-5.4,6.3-10.3,11.8-10.3   c0.3,0,0.6,0,0.9,0c0.1,0,0.3,0,0.4,0c0.1,0,0.3,0.1,0.4,0.1c5.7,1,10.4,7.5,9.5,13.2c-0.9,5.7-7.3,10.5-13,9.8   C717.3,776.6,712.3,770.2,713,764.5z"/>
</g>
<g class="st0" id="flat">
<g class="st3">
<g>
<g>
<g>
<g>
<g>
<g>
<g>
<g>
<path class="st6" d="M775.4,184.7l-10-35.8c-63.1,16.2-91.5,23.2-140.5,36.5l11,34c24.5-8,32.3-8,45.5-12.2            c3.3,64.8,0.3,264,3.3,335l37.5-4.8c-0.5-83.1-1.6-260.6-2-336.4C730.1,197.9,740,194.7,775.4,184.7z"/>
</g>
</g>
</g>
</g>
</g>
</g>
</g>
</g>
<g>
<g>
<g>
<g>
<g>
<g>
<g>
<g>
<path class="st9" d="M749.9,191.6c-1.8,4.4,3.4,13,7.8,15c4.3,2,9.3,1.7,14,1.2c14.7-1.4,73.5-16.2,93.5-23.2            c8.1-2.8,22.3-20.3,6.9-49.9c-11.3-21.6-33.7-20.4-40.3-19c-23.4,4.9-46.8,9.7-70.2,14.6c-6.3,1.3-12.9,2.8-17.6,7.2            c-4.7,4.4-8.6,13.9-4,18.3c4.4-1.2,14.7,2.4,19.2,14.6C762.5,179.3,753.9,189.4,749.9,191.6z"/>
</g>
</g>
</g>
</g>
</g>
</g>
</g>
</g>
<g>
<g>
<g>
<g>
<g>
<g>
<g>
<g>
<path class="st9" d="M526,265.4c4.3,2,9.3,1.7,14,1.2c14.7-1.4,73.5-16.2,93.5-23.2c8.1-2.8,22.3-20.3,6.9-49.9            c-11.3-21.6-33.7-20.4-40.3-19c-23.4,4.9-46.8,9.7-70.2,14.6c-6.3,1.3-12.9,2.8-17.6,7.2c-4.7,4.4-15.9,16.6-9.1,40.9            S521.7,263.4,526,265.4z"/>
</g>
</g>
</g>
</g>
</g>
</g>
</g>
</g>
<g>
<g>
<g>
<g>
<g>
<g>
<g>
<g>
<path class="st7" d="M740.5,562.5c0-8-0.3-16.7-5.6-22.7c-3.3-3.7-7.7-5.6-12.6-6.4c-5.3-0.9-11.1-0.5-16.5,0.1            c-7.1,0.8-14.6,1.9-21,4.7c-3.6,1.6-6.8,3.8-9.4,6.8c-7,8-7.8,19.6-8.1,30.2c-0.5,16-1.1,38.6-1.6,57.4l77.8-7.5v0            C742.5,604.9,740.5,577.9,740.5,562.5z"/>
</g>
</g>
</g>
</g>
</g>
</g>
</g>
</g>
<g>
<g>
<g>
<g>
<g>
<g>
<g>
<g>
<path class="st8" d="M802.8,650.8c-30.7-20-78.2-41.8-138.7-17.6c-34,13.6-56.5,45.9-68.1,77c-101.2-2.1-155,6.4-317,4.7            c-7.8-21.8-24.2-44.9-44.4-56.4c-20.2-11.4-46.7-22.6-86.3-17.2c-3.4,0.5-14.7,3.5-15.9,12.3c-1.3,9.5,4.1,16.9,12.6,16.4            c20.1-3,46.2,5.5,64.1,15.1s39.7,39.2,43,73.4c126.7-7.2,245.9-3.9,372.6-11.2c8.1-33,19.5-56.2,50.3-70.8            c51.9-24.6,85.8-5.5,113.5,8C812.4,692,824.1,665.4,802.8,650.8z"/>
</g>
</g>
</g>
</g>
</g>
</g>
</g>
</g>
<g>
<g>
<g>
<g>
<g>
<g>
<g>
<g>
<path class="st9" d="M106.9,713.6c-20.4,15.8-29.8,44-24.3,69.2c5.5,25.2,25.1,46.5,49.3,55.5c22.3,8.3,49.3,5.8,67.2-9.9            c11.7-10.2,18.7-25.1,21.9-40.3c3.2-15.2,2.8-31.4-3.6-45.6c-8-17.8-27.1-29.5-44.8-36.2            C150.7,698,126.2,698.7,106.9,713.6z"/>
</g>
</g>
</g>
</g>
</g>
</g>
</g>
</g>
<g>
<g>
<g>
<g>
<g>
<g>
<g>
<path class="st7" d="M167,748.8c-22.9-20.3-57.8,17.1-32.8,37.9C158.2,806.7,189.2,768.4,167,748.8z"/>
</g>
</g>
</g>
</g>
</g>
</g>
</g>
<g>
<g>
<g>
<g>
<g>
<g>
<g>
<g>
<path class="st9" d="M662.8,731.1c-14.2,26.5-9.7,61.8,10.7,83.9s55.2,29.4,82.8,17.4c27.6-12,45.9-42.5,43.6-72.5            C794.4,687.9,696.9,667.5,662.8,731.1z"/>
</g>
</g>
</g>
</g>
</g>
</g>
</g>
</g>
<g>
<g>
<g>
<g>
<g>
<g>
<g>
<path class="st7" d="M728.4,743.2l-1.7-0.2c-11.8-1.1-23.7,8.4-25,20.2c-1.4,11.8,8,23.8,19.8,25.4           c11.8,1.6,24-7.5,25.8-19.3C749,757.6,740.1,745.2,728.4,743.2z"/>
</g>
</g>
</g>
</g>
</g>
</g>
</g>
<g>
<g>
<g>
<g>
<g>
<g>
<g>
<g>
<path class="st7" d="M596,717.7c-0.9,0-1.8-0.2-2.6-0.5c-3.9-1.5-5.8-5.8-4.4-9.7c14.7-39.2,41.1-68.8,72.4-81.3            c49-19.6,96.6-13.6,145.5,18.2c3.5,2.3,4.5,6.9,2.2,10.4c-2.3,3.5-6.9,4.5-10.4,2.2c-19.2-12.5-37.4-20.5-55.6-24.3            c-25-5.3-50.6-2.8-76.1,7.4c-27.4,11-50.7,37.4-63.9,72.7C601.9,715.9,599,717.7,596,717.7z"/>
</g>
</g>
</g>
</g>
</g>
</g>
</g>
</g>
<g>
<g>
<g>
<g>
<g>
<g>
<g>
<g>
<path class="st7" d="M320.6,722.7c-13.1,0-27-0.1-41.8-0.2c-3.1,0-5.9-2-7-5c-7.9-22.2-24-42.8-41-52.4            c-3.6-2-4.9-6.6-2.8-10.2c2-3.6,6.6-4.9,10.2-2.8c22.3,12.6,37.9,36.1,45.8,55.5c83.3,0.8,137.2-1.2,185-2.9            c14.9-0.5,28.9-1,43.1-1.4c4.1-0.1,7.6,3.1,7.7,7.3s-3.1,7.6-7.3,7.7c-14.1,0.4-28.1,0.9-43,1.4            C429.1,721.1,384.1,722.7,320.6,722.7z"/>
</g>
</g>
</g>
</g>
</g>
</g>
</g>
</g>
</g>
</g>
<g class="st0" id="colored_x5F_line">
<g class="st3">
<path class="st8" d="M749.9,191.6c-1.8,4.4,3.4,13,7.8,15c4.3,2,9.3,1.7,14,1.2c14.7-1.4,73.5-16.2,93.5-23.2    c8.1-2.8,22.3-20.3,6.9-49.9c-11.3-21.6-33.7-20.4-40.3-19c-23.4,4.9-46.8,9.7-70.2,14.6c-6.3,1.3-12.9,2.8-17.6,7.2    c-4.7,4.4-8.6,13.9-4,18.3c4.4-1.2,14.7,2.4,19.2,14.6C762.5,179.3,753.9,189.4,749.9,191.6z"/>
</g>
<g class="st3">
<path class="st8" d="M526,265.4c4.3,2,9.3,1.7,14,1.2c14.7-1.4,73.5-16.2,93.5-23.2c8.1-2.8,22.3-20.3,6.9-49.9    c-11.3-21.6-33.7-20.4-40.3-19c-23.4,4.9-46.8,9.7-70.2,14.6c-6.3,1.3-12.9,2.8-17.6,7.2c-4.7,4.4-15.9,16.6-9.1,40.9    S521.7,263.4,526,265.4z"/>
</g>
<g class="st3">
<path class="st8" d="M624.7,747.4c-126.7,7.2-245.9,3.9-372.6,11.2c-3.3-34.3-25.1-63.8-43-73.4s-44.1-18.1-64.1-15.1    c-8.5,0.5-13.9-6.9-12.6-16.4c1.2-8.8,12.5-11.8,15.9-12.3c39.6-5.5,66.1,5.7,86.3,17.2c20.2,11.4,36.6,34.6,44.4,56.4    c162,1.7,215.8-6.9,317-4.7c11.7-31.1,34.1-63.4,68.1-77c60.5-24.2,107.9-2.4,138.7,17.6c21.3,14.6,9.6,41.1-14.2,33.8    c-27.7-13.5-61.6-32.6-113.5-8C644.2,691.3,632.8,714.5,624.7,747.4z"/>
</g>
<g class="st3">
<path class="st16" d="M636.2,189.1c-3.4,0-6.4-2.3-7.3-5.7c-1-4,1.5-8.1,5.5-9.1l103.8-25.8c4-1,8.1,1.5,9.1,5.5    c1,4-1.5,8.1-5.5,9.1L638,188.8C637.4,189,636.8,189.1,636.2,189.1z"/>
</g>
<path class="st17" d="M757.1,189.3c-1.3-3.9-5.5-6.1-9.4-4.9l-0.8,0.3c-9.6,3.1-19.3,6.1-28.9,9.2c-3.1,1-5.2,3.9-5.2,7.2   c0.2,36.2,0.6,94.8,1,155.2c0.4,61.9,0.8,125.7,1,169.1c-3.5,0-6.9,0.3-9.8,0.6c-4.3,0.5-8.7,1.1-13,2   c-1.1-36.1-1.1-95.3-1.2-152.7c0-66.4-0.1-135.1-1.8-168.5c-0.1-2.3-1.3-4.5-3.2-5.8c-1.9-1.3-4.3-1.7-6.5-1   c-6.2,2-11.2,2.9-16.4,4c-5.4,1.1-10.9,2.2-17.9,4.4c-4,1.2-6.1,5.5-4.9,9.4c1.2,4,5.5,6.1,9.4,4.9c6.2-2,11.1-2.9,16.3-4   c2.8-0.5,5.6-1.1,8.6-1.8c1.3,35.5,1.3,97.9,1.4,158.4c0,60.4,0.1,122.7,1.4,158.5c-2.8,1.8-5.3,3.8-7.4,6.2   c-9.1,10.4-9.7,25.1-10,34.9c-0.3,9.6-0.6,21.4-1,33.8c-0.2,8-0.4,16.1-0.7,23.7c-0.1,4.1,3.1,7.6,7.3,7.7c0.1,0,0.1,0,0.2,0   c4,0,7.4-3.2,7.5-7.3c0.2-7.5,0.4-15.6,0.7-23.7c0.3-12.4,0.6-24.1,1-33.7c0.4-10.5,1.1-19.7,6.3-25.5c1.7-2,4-3.6,6.9-4.9   c5.4-2.4,12.2-3.4,18.7-4.1c4.3-0.5,9.8-0.9,14.5-0.1c3.7,0.6,6.4,1.9,8.2,4c3.4,3.8,3.7,10.6,3.7,17.7c0,9.9,0.9,24.6,1.7,38.9   c0.5,8.2,0.9,16.6,1.2,24c0.1,4,3.4,7.3,7.5,7.3c4.1,0,7.5-3.4,7.5-7.5c0-0.1,0-0.2,0-0.3c-0.3-7.5-0.8-16-1.3-24.3   c-0.8-14.1-1.6-28.6-1.6-38.1c0-7.7-0.1-19.2-7.5-27.6c-2.8-3.2-6.5-5.6-10.8-7.2c-0.3-43.5-0.7-108.5-1.1-171.5   c-0.4-57.4-0.7-113.2-0.9-149.6c7.9-2.5,15.7-5,23.6-7.5l0.8-0.3C756.1,197.5,758.3,193.3,757.1,189.3z"/>
<g class="st3">
<path class="st16" d="M217.5,742.5c-8-17.8-27.1-29.5-44.8-36.2c-22.1-8.3-46.5-7.6-65.8,7.3c-20.4,15.8-29.8,44-24.3,69.2    c5.5,25.2,25.1,46.5,49.3,55.5c22.3,8.3,49.3,5.8,67.2-9.9c11.7-10.2,18.7-25.1,21.9-40.3C224.3,772.9,223.9,756.6,217.5,742.5z     M133.8,787.2c-25.6-21.3,10.2-59.8,33.7-39C190.2,768.4,158.4,807.7,133.8,787.2z"/>
</g>
<g class="st3">
<path class="st16" d="M799.9,760c-5.5-72-103-92.4-137-28.9c-14.2,26.5-9.7,61.8,10.7,83.9c20.4,22.1,55.2,29.4,82.8,17.4    C783.8,820.4,802.2,790,799.9,760z M749.6,769.7c-2,13-15.4,23-28.4,21.3s-23.3-15-21.8-28s14.6-23.6,27.6-22.3l1.9,0.3    C741.8,743.1,751.6,756.7,749.6,769.7z"/>
</g>
</g>
</svg>