<?xml version="1.0" ?>
<!-- Uploaded to: SVG Repo, www.svgrepo.com, Generator: SVG Repo Mixer Tools -->
<svg width="800px" height="800px" viewBox="0 0 960 960" version="1.1" xml:space="preserve" xmlns="http://www.w3.org/2000/svg" xmlns:xlink="http://www.w3.org/1999/xlink">
<style type="text/css">
	.st0{display:none;}
	.st1{display:inline;opacity:0.93;}
	.st2{display:inline;fill:none;stroke:#000000;stroke-width:15;stroke-linecap:round;stroke-linejoin:round;stroke-miterlimit:10;}
	.st3{display:inline;}
	.st4{fill:none;stroke:#000000;stroke-width:15;stroke-linecap:round;stroke-linejoin:round;stroke-miterlimit:10;}
	.st5{display:inline;fill:none;stroke:#1A1D3F;stroke-width:15;stroke-linecap:round;stroke-linejoin:round;stroke-miterlimit:10;}
	.st6{fill:#DDEDE7;}
	.st7{fill:#1A1D3F;}
	.st8{fill:#E9B44D;}
	.st9{fill:#ED644E;}
	.st10{fill:#494EDF;}
	.st11{fill:#3DC5A1;}
	.st12{fill:#F6CEC1;}
	.st13{fill:none;}
	.st14{fill:none;stroke:#1A1D3F;stroke-width:15;stroke-linecap:round;stroke-linejoin:round;stroke-miterlimit:10;}
	.st15{display:inline;fill:#E9B44D;}
	.st16{fill:#222222;}
	.st17{display:inline;fill:#222222;}
</style>
<g class="st0" id="guide"/>
<g class="st0" id="sketch"/>
<g class="st0" id="stroke">
<path class="st2" d="M309.8,162.1c-38.9,48.5-37.2,115.9,2.6,163.8c25.5,30.7,63.6,49.2,102.7,57.5c39.1,8.3,79.6,7.3,119.4,4.6   c40.2-2.7,81.9-11,112.8-36.9c31.5-26.3,43.3-76.8,37.8-117.5c-12.6-92.1-76.8-138.4-202.3-137.9   C447.3,95.9,356.1,104.3,309.8,162.1z"/>
<path class="st2" d="M455.8,248.4c-2.9-2.8-10-7.6-6.5-15.5c1.4-3.2,5.3-4.3,8.8-4.8c14-2,28.3-2.3,42.4-1.1   c6.7,0.6,14.7,2.7,16.5,9.1c0.9,3.3-0.3,7-2.3,9.7c-2,2.8-4.9,4.9-7.6,7c-7.7,5.7-17.7,17.5-27.8,13.9   C470.3,263.4,462.6,254.9,455.8,248.4z"/>
<path class="st2" d="M460.9,347.6c8.8-10.8,17.6-21.7,26.4-32.5c5.4,6.7,18,20,27.8,29.3"/>
<path class="st2" d="M484.8,269.8c1.5,26.2,1.2,17.2,2.5,45.4"/>
<path class="st2" d="M393.7,377.7c-14.2-20-22.7-44.2-23.4-68.8c-1.1-35.7,14.1-71.7,40.8-95.5c26.6-23.8,64.3-35,99.5-29.2   c32.4,5.3,62.5,25,79.3,53.2c18.3,30.8,20.1,69.6,10.3,104c-3.9,13.8-9.6,27-16.5,39.5"/>
<path class="st2" d="M361.5,181.3c-0.3,12.9-0.6,5.8-0.9,18.6"/>
<path class="st2" d="M604.9,177.2c0,15.3,0,3.6,0,18.8"/>
<path class="st2" d="M303.1,171.3c-6.6-1.3-12.9-5.4-16.8-11.1c-6.2-9.1-7-21-4.7-31.7c3.5-15.9,13.8-30.4,28.1-38.2s32.5-8.5,47-1   c10.2,5.2,18.3,14.5,22.2,25.2"/>
<path class="st2" d="M602.6,116.6c1.8-5.6,5.4-10.9,9.7-15c15-14.3,39.3-17.6,57.6-7.9c18.3,9.7,29.2,31.7,25.8,52.1   c-2.5,14.9-12.5,28.2-25.6,35.5"/>
<path class="st2" d="M583.6,381.1c32.9,32.8,50.8,68.2,54.4,114.5c3.6,46.3-8,94.4-40.4,127.7c-29.4,30.2-72,47.3-114.1,45.2   c-42.1-2.1-83-23.4-108.3-57.1c-25.9-34.3-35.9-79.6-30.6-122.3c5.4-42.7,24-76.5,49.1-111.4"/>
<path class="st2" d="M345.8,481.3c-23.7,17.8-58,41.1-71.1,44.8c-19.7,5.5-35,5.4-52.8-4.7c-17.8-10.1-36.5-35.2-31.2-55   c5.1-19.1,23.6-32.5,41.5-40.9c45.7-21.3,97.4-40.2,158.9-47.1"/>
<path class="st2" d="M583.6,381.1c46.2,12.8,70.3,22.5,106.3,37.2c22.6,9.3,57.2,24.3,72.3,43.4c15.1,19.1,8.1,52.5-10.6,68.3   c-12.5,10.6-28.1,15.1-44.1,11.4c-25-5.8-48.3-25.1-69.3-43.6"/>
<path class="st2" d="M467.2,666.7c1.1,44.6-4.3,95-14.7,137.2c-5.8,23.7-15.1,49.1-36.4,60.8c-14.8,8.1-33.5,7.9-48.5,0.1   c-14.9-7.8-25.8-22.6-29.6-39c-5-21.6,1.8-44,8.5-65.2c13.7-43.2,28.8-89.9,42.7-133.5"/>
<path class="st2" d="M587.6,632.6L587.6,632.6c14.5,44.8,42.9,117.6,49,140c6.8,25,6,53.6-9.1,74.7c-15,21.1-46.7,31-68.3,16.6   c-18.8-12.5-24.2-37.3-27.4-59.6c-6.4-44.4-14.8-92.2-17.4-137.7"/>
</g>
<g id="outline">
<path d="M449.6,252.9c0.4,0.3,0.7,0.6,1,0.9c1,0.9,2,1.9,3,3c6.5,6.4,13.9,13.7,23.1,17c0.3,0.1,0.5,0.2,0.8,0.3   c0.4,7.8,0.7,11.9,0.9,15.3c0.4,5.4,0.6,8.8,1.2,23.3l-24.6,30.3c-2.6,3.2-2.1,7.9,1.1,10.6c1.4,1.1,3.1,1.7,4.7,1.7   c2.2,0,4.3-0.9,5.8-2.8l20.8-25.5c6.5,7.2,15.3,16.2,22.5,23c3,2.8,7.8,2.7,10.6-0.3c2.8-3,2.7-7.8-0.3-10.6   c-8.6-8.1-19.7-19.7-25.6-26.6c-0.7-14.9-0.9-18.4-1.3-24c-0.2-3.4-0.5-7.5-0.9-15.6c5.5-2.5,10.3-6.6,14.4-10.1   c1.7-1.5,3.3-2.8,4.7-3.9c3-2.3,6.5-4.8,9.2-8.6c3.7-5,4.9-10.9,3.5-16.2c-1.6-5.9-6.9-13.2-23.1-14.6c-14.7-1.3-29.5-0.9-44.1,1.1   c-2.8,0.4-11.3,1.6-14.7,9.2C437.1,241.9,446.2,249.9,449.6,252.9z M455.9,236.3c0.4-0.2,1.3-0.5,3.2-0.8c13.5-1.9,27.2-2.2,40.7-1   c6.3,0.5,9.5,2.3,9.9,3.6c0.2,0.6-0.2,2-1.1,3.3c-1.4,1.9-3.7,3.6-6,5.4c-1.8,1.3-3.6,2.9-5.5,4.5c-5.1,4.3-11.4,9.8-15.3,8.3   c-6.1-2.2-12.3-8.3-17.7-13.6c-1.1-1.1-2.1-2.1-3.2-3.1c0,0,0,0,0,0c-0.4-0.4-0.9-0.8-1.4-1.3C455.8,238.4,455.5,237.4,455.9,236.3   z M360.6,207.4c-0.1,0-0.1,0-0.2,0c-4.1-0.1-7.4-3.5-7.3-7.7c0.2-6.7,0.3-8.3,0.5-9.9c0.1-1.3,0.3-2.6,0.4-8.7   c0.1-4.1,3.5-7.4,7.7-7.3c4.1,0.1,7.4,3.5,7.3,7.7c-0.2,6.7-0.3,8.3-0.5,9.9c-0.1,1.3-0.3,2.6-0.4,8.7   C368,204.2,364.7,207.4,360.6,207.4z M597.4,196v-18.8c0-4.1,3.4-7.5,7.5-7.5s7.5,3.4,7.5,7.5V196c0,4.1-3.4,7.5-7.5,7.5   S597.4,200.2,597.4,196z M183.4,464.4c-6.6,24.7,15.9,52.8,34.7,63.5c11,6.3,21.5,9.3,33.3,9.3c7.7,0,16-1.3,25.2-3.9   c13.4-3.7,42.1-23.3,59.6-35.8c-3.3,43.3,8.5,85.9,32.9,118.4c3.5,4.7,7.4,9.2,11.4,13.4c-6.1,19.2-12.5,39-18.8,58.8   c-7.5,23.4-15.2,47.6-22.5,70.4c-6.4,20-14.3,44.9-8.7,69.1c4.3,18.9,16.8,35.3,33.4,44c8.7,4.5,18.3,6.8,27.8,6.8   c9.7,0,19.3-2.3,27.7-7c24.6-13.6,34.4-42.2,40.1-65.6c9.9-40.4,15.3-87.4,15.1-130.4c2.8,0.3,5.5,0.5,8.3,0.6   c2.4,0.1,4.8,0.2,7.3,0.2c5.7,0,11.4-0.3,17-1c2.4,33.8,7.7,68.6,12.8,102.2c1.4,9.2,2.8,18.8,4.2,28c3.7,25.5,10,51,30.7,64.8   c8,5.3,17.4,8.1,27.4,8.1c5,0,10.1-0.7,15.3-2.1c14.4-3.8,27.5-12.8,35.9-24.5c14.8-20.8,18.6-50.4,10.2-81   c-3.2-11.9-12.2-36.5-22.5-64.9c-8.5-23.5-18.1-49.9-25.1-70.8c2.3-2.1,4.5-4.2,6.7-6.4c27.3-28,42.5-68.8,43.2-114   c18.4,15.4,38.1,29.2,59.6,34.2c4.2,1,8.5,1.5,12.7,1.5c13.5,0,26.6-4.9,37.9-14.4c10.5-8.8,17.9-22.4,20.5-37.3   c2.7-15.7-0.5-30.8-8.9-41.3c-15.2-19.3-46.6-34-75.3-45.7c-30.4-12.5-51.6-21-82.6-30.4c16.2-6.1,30.1-14.1,42.1-24.1   c15.9-13.3,28.1-33,35.1-57c6.4-21.5,8.2-45.4,5.2-67.2c-2.4-17.8-6.8-33.9-13-48.4c12.5-9,21.1-22.4,23.6-37.1   c3.9-23.6-8.6-48.8-29.7-60c-21.1-11.2-49-7.4-66.3,9.1c-3.3,3.1-6.1,6.8-8.3,10.6c-30.9-12.6-69.2-18.7-116-18.5   c-13,0.1-47.3,1.3-84.4,11.8c-5.3,1.5-10.5,3.1-15.4,4.9c-5.2-9.6-13.2-17.5-22.7-22.4c-16.5-8.5-37.2-8-54,1.1   c-15.9,8.7-27.9,24.8-31.9,43.2c-3.1,14-0.9,27.7,5.8,37.6c3,4.4,7.1,8,11.8,10.6c-28,48.9-23,110.2,14.7,155.6   c16.9,20.4,37.7,34.3,58.2,43.9c-57.8,9.9-104.4,29.5-135.9,44.1C211.6,426.8,189.5,441.4,183.4,464.4z M445.2,802.2   c-5,20.4-13.3,45.3-32.8,56c-12.2,6.7-28.5,6.7-41.4,0c-12.7-6.6-22.4-19.3-25.7-34c-4.6-20.3,2.3-42,8.4-61.2   c7.2-22.8,15-47,22.5-70.4c5.6-17.5,11.2-35,16.7-52.1c19.2,16,42.4,27.2,67,32.4C460.2,715.5,455,762.2,445.2,802.2z M607.2,710.9   c9.8,27,19.1,52.4,22.1,63.7c7.2,26.3,4.3,51.2-8,68.4c-12.2,17.1-39.6,27.1-58,14.7c-15.8-10.5-20.9-32.4-24.1-54.5   c-1.3-9.2-2.8-18.8-4.2-28.1c-5.1-33.8-10.4-68.7-12.8-102.4c22.1-4.7,43.3-14.2,61.6-27.6C590.6,665.2,599.4,689.3,607.2,710.9z    M592.2,618.1c-21.1,21.7-49.3,36.2-78.9,41.2c0,0-0.1,0-0.1,0c-9.7,1.6-19.5,2.2-29.3,1.7c-5-0.2-10-0.8-15-1.6   c-0.2-0.1-0.5-0.1-0.7-0.1c-27.6-4.7-53.6-17.8-73.5-37.2c-0.2-0.2-0.3-0.3-0.5-0.5c-4.7-4.6-9-9.5-13-14.8   c-23.9-31.7-34.5-74.3-29.1-116.9c5.3-42,24.3-74.7,44.6-103.6c5.9,1.7,11.6,3.1,16.9,4.2c23.6,5,47.8,6.7,71.5,6.7   c16.9,0,33.7-0.8,50-1.9c16.9-1.1,32.2-3.2,46.1-6.1c30.8,31.8,46.1,64.9,49.4,106.9C634.3,544.7,620.3,589.1,592.2,618.1z    M416,219c24.9-22.2,60.6-32.7,93.3-27.3c30.9,5.1,58.6,23.6,74,49.7c16.1,27.1,19.6,62.9,9.5,98.1c-3.3,11.6-8.1,23.4-14.3,35   c-13.3,2.9-28.1,4.9-44.5,6c-38.1,2.5-78.7,3.7-117.4-4.5c-6.2-1.3-12.3-2.9-18.3-4.7c-12.6-18.6-20-40.8-20.7-62.6   C376.7,274.9,391,241.4,416,219z M687,425.3c16.3,6.7,54.4,22.3,69.2,41.1c5.7,7.3,7.9,18,5.9,29.5c-2,11.3-7.7,21.9-15.4,28.4   c-11.1,9.4-24.5,12.9-37.6,9.8c-22.4-5.2-43.8-22.4-63.7-39.9c-3.1-37.4-15.5-69.3-38.8-98.6C636.6,404.7,657.3,413.1,687,425.3z    M617.5,107c12.6-12,33.6-14.8,48.9-6.7c15.3,8.1,24.7,27.2,21.9,44.3c-1.6,9.8-7.4,19.2-15.5,25.9c-10.4-18.8-24.5-34.4-42.2-46.6   c-5.7-3.9-11.7-7.5-18-10.7C613.9,110.9,615.5,108.9,617.5,107z M288.9,130.1c3.1-14.2,12.2-26.6,24.4-33.2c12.3-6.7,28-7.1,40-0.9   c6.3,3.2,11.7,8.4,15.4,14.5c-27.3,11.6-49.1,27.3-64.8,47c-1.3,1.7-2.6,3.3-3.8,5c-3-1.5-5.8-3.7-7.7-6.5   C288,149.5,286.7,140,288.9,130.1z M318.2,321.1c-37.8-45.5-38.8-108.9-2.5-154.3c48-60,147.7-63.4,167.2-63.5c0.6,0,1.3,0,1.9,0   c59.5,0,105.7,11.1,137.3,32.9c17.9,12.4,31.5,28.2,41,47.8c0.1,0.3,0.3,0.7,0.5,1c0,0.1,0.1,0.1,0.1,0.2   c6.8,14.4,11.5,30.9,14.1,49.5c4.8,35.1-4.1,84.7-35.1,110.7c-12.3,10.3-27,18.2-44.7,24c3.9-8.6,7-17.2,9.5-25.7   c11.2-39.2,7.2-79.3-11-109.9c-17.7-29.8-49.3-51-84.5-56.8c-37.6-6.2-77.2,5.4-105.8,31c-28.3,25.3-44.5,63.2-43.2,101.4   c0.6,18.4,5.4,37.1,13.7,54.1C352.7,352.9,332.7,338.5,318.2,321.1z M377.6,387.8c-17,25.5-32.2,54.1-38.7,89.3   c-25.3,18.8-55.6,38.8-66.3,41.8c-19.6,5.5-32.4,4.4-47.1-4c-16.1-9.2-31.7-31.5-27.7-46.6c4.7-17.5,23-29.2,37.5-36   C267.8,417.2,316.9,396.6,377.6,387.8z"/>
</g>
<g class="st0" id="flat">
<g class="st3">
<g>
<g>
<g>
<g>
<g>
<g>
<g>
<g>
<path class="st8" d="M762.1,461.8c-15.1-19.2-49.7-34.2-72.3-43.4c-35.9-14.7-60-24.5-106.3-37.2c0,0,0,0,0,0h0            c23.3-5.5,45.5-14.7,63.8-30c31.5-26.3,43.3-76.8,37.8-117.5c-2.7-19.5-7.7-37-15.1-52.4l0,0            c13.2-7.3,23.1-20.6,25.6-35.5c3.4-20.4-7.5-42.4-25.8-52.1c-18.3-9.7-42.6-6.4-57.6,7.9c-4.3,4.1-7.9,9.4-9.7,15l0,0            c-30.9-14.1-70.7-21.1-119.8-20.9c-21.5,0.1-63.7,3.2-103.8,18.6c-4-10.7-12-20-22.2-25.2c-14.5-7.4-32.7-6.8-47,1            c-14.3,7.8-24.6,22.3-28.1,38.2c-2.3,10.7-1.5,22.7,4.7,31.7c3.9,5.7,10.2,9.8,16.8,11.1l0,0            c-31.8,47.6-28,109.7,9.3,154.6c20.8,25.1,50,42,81.3,51.9l0,0c-61.5,6.9-115.8,26.5-161.5,47.8            c-18,8.4-36.4,21.7-41.5,40.9c-5.3,19.8,13.4,44.9,31.2,55c17.8,10.1,33.1,10.2,52.8,4.7c13.2-3.7,47.4-27,71.1-44.8l0,0            c-0.4,2.6-0.8,5.2-1.1,7.8c-5.4,42.7,4.7,88,30.6,122.3c4.3,5.7,9,10.9,14,15.9l0,0c-13.9,43.6-28.9,90.3-42.7,133.5            c-6.7,21.1-13.5,43.5-8.5,65.2c3.8,16.4,14.6,31.2,29.6,39c14.9,7.8,33.8,8,48.5-0.1c21.3-11.8,30.6-37.2,36.4-60.8            c10.4-42.3,15.8-92.6,14.7-137.2l0,0c5.4,0.9,10.9,1.5,16.3,1.8c10.3,0.5,20.7-0.1,30.9-1.9l0,0            c2.7,45.5,11,93.2,17.4,137.7c3.2,22.3,8.6,47.1,27.4,59.6c21.6,14.4,53.3,4.5,68.3-16.6c15-21.1,15.9-49.7,9.1-74.7            c-6.1-22.4-34.5-95.2-49-140v0l0,0c3.5-2.9,6.8-6,10-9.3c31.9-32.8,43.7-79.9,40.6-125.5c21,18.5,44.3,37.9,69.3,43.6            c16,3.7,31.5-0.8,44.1-11.4C770.2,514.3,777.2,480.9,762.1,461.8z"/>
</g>
</g>
</g>
</g>
</g>
</g>
</g>
</g>
<g>
<g>
<g>
<g>
<g>
<g>
<g>
<path class="st6" d="M627.5,130.5c9.7,6.1,18,14.2,25.4,23.7c0,0,21.4-16.3,9.7-30.3S627.5,130.5,627.5,130.5z"/>
</g>
</g>
</g>
</g>
</g>
</g>
</g>
<g>
<g>
<g>
<g>
<g>
<g>
<g>
<path class="st6" d="M319.7,154.5c10.3-10.8,22.9-21.6,33.9-26.4c0,0-15.7-28.1-37-12.9           C295.3,130.3,319.7,154.5,319.7,154.5z"/>
</g>
</g>
</g>
</g>
</g>
</g>
</g>
<g>
<g>
<g>
<g>
<g>
<g>
<g>
<g>
<g>
<path class="st6" d="M583.6,381.1c6.9-12.6,12.6-25.7,16.5-39.5c9.8-34.5,8.1-73.2-10.3-104             c-16.8-28.2-46.9-47.9-79.3-53.2c-35.3-5.8-72.9,5.3-99.5,29.2c-26.6,23.8-41.9,59.8-40.8,95.5             c0.8,24.6,9.2,48.7,23.4,68.8c7.1,2.2,14.2,4.1,21.4,5.6c39.1,8.3,79.6,7.3,119.4,4.6             C550.9,386.9,567.5,384.8,583.6,381.1z"/>
</g>
</g>
</g>
</g>
</g>
</g>
</g>
</g>
</g>
<g>
<g>
<g>
<g>
<g>
<g>
<g>
<path class="st7" d="M520.3,338.9c-8.6-8.1-19.7-19.7-25.6-26.6l-0.2-3.6c-0.9-20.3-0.9-20.3-2-40l-0.2-4.3           c5.4-3.2,10.5-8.4,14.8-11.6c2.8-2.1,5.6-4.2,7.6-7s3.2-6.4,2.3-9.7c-1.8-6.5-9.8-8.5-16.5-9.1           c-14.1-1.2-28.4-0.9-42.4,1.1c-3.5,0.5-7.4,1.6-8.8,4.8c-3.5,8,3.6,12.7,6.5,15.5c6.3,6.1,13.4,13.8,21.6,17.5l0.2,3.6           c1.1,19.6,1.1,19.6,2,39.8l0.1,3.3l-24.6,30.3c-2.6,3.2-2.1,7.9,1.1,10.6c1.4,1.1,3.1,1.7,4.7,1.7c2.2,0,4.3-0.9,5.8-2.8           l20.8-25.5c6.5,7.2,15.3,16.2,22.5,23c3,2.8,7.8,2.7,10.6-0.3C523.4,346.5,523.3,341.8,520.3,338.9z"/>
</g>
</g>
</g>
</g>
</g>
</g>
</g>
<g>
<g>
<g>
<g>
<g>
<g>
<g>
<g>
<g>
<path class="st7" d="M360.6,207.4c-0.1,0-0.1,0-0.2,0c-4.1-0.1-7.4-3.5-7.3-7.7c0.2-6.7,0.3-8.3,0.5-9.9             c0.1-1.3,0.3-2.6,0.4-8.7c0.1-4.1,3.5-7.4,7.7-7.3c4.1,0.1,7.4,3.5,7.3,7.7c-0.2,6.7-0.3,8.3-0.5,9.9             c-0.1,1.3-0.3,2.6-0.4,8.7C368,204.2,364.7,207.4,360.6,207.4z"/>
</g>
</g>
</g>
</g>
</g>
</g>
</g>
</g>
</g>
<g>
<g>
<g>
<g>
<g>
<g>
<g>
<g>
<g>
<path class="st7" d="M604.9,203.5c-4.1,0-7.5-3.4-7.5-7.5v-18.8c0-4.1,3.4-7.5,7.5-7.5s7.5,3.4,7.5,7.5V196             C612.4,200.2,609,203.5,604.9,203.5z"/>
</g>
</g>
</g>
</g>
</g>
</g>
</g>
</g>
</g>
<g>
<g>
<g>
<g>
<g>
<g>
<g>
<g>
<path class="st7" d="M321.1,162.3c-1.5,0-3-0.4-4.3-1.4c-8.2-5.8-13.1-12.6-15.5-21.3c-2.8-10.5,0-21.8,7.3-28.8            c7.9-7.6,20.7-9.6,31.8-5c8.8,3.7,15.3,10,20.4,20.1c1.9,3.7,0.4,8.2-3.3,10.1c-3.7,1.9-8.2,0.4-10.1-3.3            c-3.5-6.9-7.3-10.8-12.8-13c-5.5-2.3-12.1-1.5-15.7,2c-3.3,3.2-4.6,8.8-3.2,14c1.4,5.3,4.3,9.2,9.6,13            c3.4,2.4,4.2,7.1,1.8,10.5C325.8,161.2,323.5,162.3,321.1,162.3z"/>
</g>
</g>
</g>
</g>
</g>
</g>
</g>
</g>
<g>
<g>
<g>
<g>
<g>
<g>
<g>
<g>
<path class="st7" d="M653.6,160.5c-3.5,0-6.6-2.4-7.3-5.9c-0.9-4.1,1.7-8,5.8-8.9c5-1.1,8.8-7,7.9-12.2            c-0.9-5.3-6.6-9.8-12.1-9.7c-5.7,0.1-11.4,4.7-12.8,10.5c-1,4-5.1,6.4-9.1,5.4c-4-1-6.4-5.1-5.4-9.1            c3.2-12.4,14.6-21.5,27.1-21.7c13.1-0.3,25,9.5,27.2,22.1c2.3,13.2-6.7,26.7-19.6,29.4            C654.6,160.4,654.1,160.5,653.6,160.5z"/>
</g>
</g>
</g>
</g>
</g>
</g>
</g>
</g>
<g>
<g>
<g>
<g>
<g>
<g>
<g>
<g>
<path class="st7" d="M514.4,674.8c-3.2,0-6.1-2-7.1-5.2c-1.3-3.9,0.9-8.2,4.8-9.5c21.6-7.1,42.2-17,61.2-29.6            c3.5-2.3,8.1-1.3,10.4,2.1c2.3,3.5,1.3,8.1-2.1,10.4c-20.1,13.3-41.9,23.9-64.9,31.4C516,674.6,515.2,674.8,514.4,674.8z"/>
</g>
</g>
</g>
</g>
</g>
</g>
</g>
</g>
<g>
<g>
<g>
<g>
<g>
<g>
<g>
<g>
<path class="st7" d="M465.5,673.1c-0.6,0-1.2-0.1-1.8-0.2c-24.3-6-47.1-17.9-66-34.3c-3.1-2.7-3.5-7.5-0.7-10.6            c2.7-3.1,7.5-3.5,10.6-0.7c17.1,14.9,37.8,25.6,59.8,31c4,1,6.5,5.1,5.5,9.1C471.9,670.9,468.8,673.1,465.5,673.1z"/>
</g>
</g>
</g>
</g>
</g>
</g>
</g>
</g>
<g>
<g>
<g>
<g>
<g>
<g>
<g>
<g>
<path class="st7" d="M346.3,487.5c-0.6,0-1.3-0.1-1.9-0.2c-4-1.1-6.4-5.2-5.3-9.2c5-18.9,12-37.3,20.9-54.7            c1.9-3.7,6.4-5.2,10.1-3.3c3.7,1.9,5.2,6.4,3.3,10.1c-8.4,16.4-15,33.8-19.7,51.7C352.6,485.3,349.6,487.5,346.3,487.5z"/>
</g>
</g>
</g>
</g>
</g>
</g>
</g>
</g>
<g>
<g>
<g>
<g>
<g>
<g>
<g>
<g>
<path class="st7" d="M637.8,505.9c-3.7,0-6.9-2.7-7.4-6.5c-3.4-24.6-10.7-42.5-14.7-50.9c-1.8-3.7-0.2-8.2,3.5-10            c3.7-1.8,8.2-0.2,10,3.5c7.6,15.9,13.3,35.6,16,55.3c0.6,4.1-2.3,7.9-6.4,8.5C638.5,505.9,638.2,505.9,637.8,505.9z"/>
</g>
</g>
</g>
</g>
</g>
</g>
</g>
</g>
</g>
</g>
<g class="st0" id="colored_x5F_line">
<g class="st3">
<path class="st8" d="M762.1,461.8c-15.1-19.2-49.7-34.2-72.3-43.4c-35.9-14.7-60-24.5-106.3-37.2c0,0,0,0,0,0h0    c23.3-5.5,45.5-14.7,63.8-30c31.5-26.3,43.3-76.8,37.8-117.5c-2.7-19.5-7.7-37-15.1-52.4l0,0c13.2-7.3,23.1-20.6,25.6-35.5    c3.4-20.4-7.5-42.4-25.8-52.1c-18.3-9.7-42.6-6.4-57.6,7.9c-4.3,4.1-7.9,9.4-9.7,15l0,0c-30.9-14.1-70.7-21.1-119.8-20.9    c-21.5,0.1-63.7,3.2-103.8,18.6c-4-10.7-12-20-22.2-25.2c-14.5-7.4-32.7-6.8-47,1c-14.3,7.8-24.6,22.3-28.1,38.2    c-2.3,10.7-1.5,22.7,4.7,31.7c3.9,5.7,10.2,9.8,16.8,11.1l0,0c-31.8,47.6-28,109.7,9.3,154.6c20.8,25.1,50,42,81.3,51.9    c-14.2-20-22.7-44.2-23.4-68.8c-1.1-35.7,14.1-71.7,40.8-95.5c26.7-23.8,64.3-35,99.5-29.2c32.4,5.3,62.5,25,79.3,53.2    c18.3,30.8,20.1,69.6,10.3,104c-3.9,13.8-9.6,27-16.5,39.5c-16,3.8-32.7,5.8-49,6.9c-39.9,2.7-80.3,3.7-119.4-4.6    c-7.2-1.5-14.4-3.4-21.4-5.6c0,0,0,0,0,0l0,0c-61.5,6.9-115.8,26.5-161.5,47.8c-18,8.4-36.4,21.7-41.5,40.9    c-5.3,19.8,13.4,44.9,31.2,55c17.8,10.1,33.1,10.2,52.8,4.7c13.2-3.7,47.4-27,71.1-44.8l0,0c-0.4,2.6-0.8,5.2-1.1,7.8    c-5.4,42.7,4.7,88,30.6,122.3c4.3,5.7,9,10.9,14,15.9l0,0c-13.9,43.6-28.9,90.3-42.7,133.5c-6.7,21.1-13.5,43.5-8.5,65.2    c3.8,16.4,14.6,31.2,29.6,39c14.9,7.8,33.8,8,48.5-0.1c21.3-11.8,30.6-37.2,36.4-60.8c10.4-42.3,15.8-92.6,14.7-137.2l0,0    c5.4,0.9,10.9,1.5,16.3,1.8c10.3,0.5,20.7-0.1,30.9-1.9l0,0c2.7,45.5,11,93.2,17.4,137.7c3.2,22.3,8.6,47.1,27.4,59.6    c21.6,14.4,53.3,4.5,68.3-16.6c15-21.1,15.9-49.7,9.1-74.7c-6.1-22.4-34.5-95.2-49-140v0l0,0c3.5-2.9,6.8-6,10-9.3    c31.9-32.8,43.7-79.9,40.6-125.5c21,18.5,44.3,37.9,69.3,43.6c16,3.7,31.5-0.8,44.1-11.4C770.2,514.3,777.2,480.9,762.1,461.8z"/>
</g>
<path class="st17" d="M494.7,312.3c-0.7-14.9-0.9-18.4-1.3-24c-0.2-3.4-0.5-7.5-0.9-15.6c5.5-2.5,10.3-6.6,14.4-10.1   c1.7-1.5,3.3-2.8,4.7-3.9c3-2.3,6.5-4.8,9.2-8.6c3.7-5,4.9-10.9,3.5-16.2c-1.6-5.9-6.9-13.2-23.1-14.6c-14.7-1.3-29.5-0.9-44.1,1.1   c-2.8,0.4-11.3,1.6-14.7,9.2c-5.2,12,3.8,20,7.2,23.1c0.4,0.3,0.7,0.6,1,0.9c1,0.9,2,1.9,3,3c6.5,6.4,13.9,13.7,23.1,17   c0.3,0.1,0.5,0.2,0.8,0.3c0.4,7.8,0.7,11.9,0.9,15.3c0.4,5.4,0.6,8.8,1.2,23.3l-24.6,30.3c-2.6,3.2-2.1,7.9,1.1,10.6   c1.4,1.1,3.1,1.7,4.7,1.7c2.2,0,4.3-0.9,5.8-2.8l20.8-25.5c6.5,7.2,15.3,16.2,22.5,23c3,2.8,7.8,2.7,10.6-0.3   c2.8-3,2.7-7.8-0.3-10.6C511.7,330.9,500.6,319.3,494.7,312.3z"/>
<g class="st3">
<path class="st16" d="M360.6,207.4c-0.1,0-0.1,0-0.2,0c-4.1-0.1-7.4-3.5-7.3-7.7c0.2-6.7,0.3-8.3,0.5-9.9c0.1-1.3,0.3-2.6,0.4-8.7    c0.1-4.1,3.5-7.4,7.7-7.3c4.1,0.1,7.4,3.5,7.3,7.7c-0.2,6.7-0.3,8.3-0.5,9.9c-0.1,1.3-0.3,2.6-0.4,8.7    C368,204.2,364.7,207.4,360.6,207.4z"/>
</g>
<g class="st3">
<path class="st16" d="M604.9,203.5c-4.1,0-7.5-3.4-7.5-7.5v-18.8c0-4.1,3.4-7.5,7.5-7.5s7.5,3.4,7.5,7.5V196    C612.4,200.2,609,203.5,604.9,203.5z"/>
</g>
<g class="st3">
<g>
<path class="st16" d="M321.1,162.3c-1.5,0-3-0.4-4.3-1.4c-8.2-5.8-13.1-12.6-15.5-21.3c-2.8-10.5,0-21.8,7.3-28.8     c7.9-7.6,20.7-9.6,31.8-5c8.8,3.7,15.3,10,20.4,20.1c1.9,3.7,0.4,8.2-3.3,10.1c-3.7,1.9-8.2,0.4-10.1-3.3     c-3.5-6.9-7.3-10.8-12.8-13c-5.5-2.3-12.1-1.5-15.7,2c-3.3,3.2-4.6,8.8-3.2,14c1.4,5.3,4.3,9.2,9.6,13c3.4,2.4,4.2,7.1,1.8,10.5     C325.8,161.2,323.5,162.3,321.1,162.3z"/>
</g>
</g>
<g class="st3">
<g>
<path class="st16" d="M653.6,160.5c-3.5,0-6.6-2.4-7.3-5.9c-0.9-4.1,1.7-8,5.8-8.9c5-1.1,8.8-7,7.9-12.2     c-0.9-5.3-6.6-9.8-12.1-9.7c-5.7,0.1-11.4,4.7-12.8,10.5c-1,4-5.1,6.4-9.1,5.4c-4-1-6.4-5.1-5.4-9.1     c3.2-12.4,14.6-21.5,27.1-21.7c13.1-0.3,25,9.5,27.2,22.1c2.3,13.2-6.7,26.7-19.6,29.4C654.6,160.4,654.1,160.5,653.6,160.5z"/>
</g>
</g>
</g>
</svg>